STARTFONT 2.1
COMMENT
COMMENT Converted from OpenType font "7segment.ttf" by "otf2bdf 3.0".
COMMENT
FONT -FreeType-Seven Segment-Medium-R-Normal--66-480-100-100-P-219-ISO10646-1
SIZE 48 100 100
FONTBOUNDINGBOX 154 67 0 -9
STARTPROPERTIES 19
FOUNDRY "FreeType"
FAMILY_NAME "Seven Segment"
WEIGHT_NAME "Medium"
SLANT "R"
SETWIDTH_NAME "Normal"
ADD_STYLE_NAME ""
PIXEL_SIZE 66
POINT_SIZE 480
RESOLUTION_X 100
RESOLUTION_Y 100
SPACING "P"
AVERAGE_WIDTH 219
CHARSET_REGISTRY "ISO10646"
CHARSET_ENCODING "1"
FONT_ASCENT 57
FONT_DESCENT 11
COPYRIGHT "-FreeType-Seven Segment-Medium-R-Normal--66-480-100-100-P-219-ISO10646-1"
_OTF_FONTFILE "7segment.ttf"
_OTF_PSNAME "SevenSegmentRegular"
ENDPROPERTIES
CHARS 164
STARTCHAR 0000
ENCODING 0
SWIDTH 0 0
DWIDTH 0 0
BBX 0 0 0 0
BITMAP
ENDCHAR
STARTCHAR 000A
ENCODING 10
SWIDTH 480 0
DWIDTH 32 0
BBX 0 0 0 0
BITMAP
ENDCHAR
STARTCHAR 000D
ENCODING 13
SWIDTH 480 0
DWIDTH 32 0
BBX 0 0 0 0
BITMAP
ENDCHAR
STARTCHAR 0020
ENCODING 32
SWIDTH 300 0
DWIDTH 20 0
BBX 0 0 0 0
BITMAP
ENDCHAR
STARTCHAR 0021
ENCODING 33
SWIDTH 180 0
DWIDTH 12 0
BBX 4 47 4 0
BITMAP
20
70
F0
F0
F0
F0
F0
F0
F0
F0
F0
F0
F0
F0
F0
F0
F0
F0
F0
F0
F0
F0
F0
F0
F0
F0
F0
F0
F0
F0
F0
F0
F0
F0
F0
F0
F0
60
00
00
00
60
F0
F0
F0
70
20
ENDCHAR
STARTCHAR 0022
ENCODING 34
SWIDTH 285 0
DWIDTH 19 0
BBX 11 6 4 40
BITMAP
2080
71C0
F3E0
F3E0
71C0
2080
ENDCHAR
STARTCHAR 0023
ENCODING 35
SWIDTH 555 0
DWIDTH 37 0
BBX 27 31 5 0
BITMAP
00020200
000F0F00
000F0F00
001F0F00
001E1F00
003E1E00
003E1E00
003C3E00
007C3C00
7FFFFFC0
FFFFFFE0
FFFFFFE0
7FFFFFC0
01F0F000
01F0F000
01E1F000
03E1E000
03E1E000
7FFFFFC0
FFFFFFE0
FFFFFFE0
7FFFFFC0
0F878000
0F0F8000
1F0F0000
1F1F0000
1E1F0000
3E1E0000
3E1E0000
1C1E0000
10080000
ENDCHAR
STARTCHAR 0024
ENCODING 36
SWIDTH 510 0
DWIDTH 34 0
BBX 26 59 4 -6
BITMAP
00080000
001C0000
001E0000
001E0000
001E0000
001E0000
07FFF800
0FFFFC00
0FFFFC00
27FFF800
70000000
F0000000
F0000000
F0000000
F0000000
F0000000
F0000000
F0000000
F0000000
F0000000
F0000000
F0000000
F0000000
F0000000
F0000000
F0000000
70000000
27FFF800
0FFFFC00
0FFFFC00
07FFF900
00000380
000007C0
000007C0
000007C0
000007C0
000007C0
000007C0
000007C0
000007C0
000007C0
000007C0
000007C0
000007C0
000007C0
000007C0
000007C0
000007C0
00000380
07FFF900
0FFFFC00
0FFFFC00
07FFF800
001E0000
001E0000
001E0000
001E0000
001C0000
00080000
ENDCHAR
STARTCHAR 0025
ENCODING 37
SWIDTH 705 0
DWIDTH 47 0
BBX 39 47 4 0
BITMAP
0000000180
0000000380
00000007C0
00000007C0
0000000F80
0000001F80
0000001F00
0000003E00
3FF0003E00
3FF0007C00
C00C007C00
C00C00F800
C00C01F000
C00C01F000
C00C03E000
C00C03E000
C00C07C000
C00C07C000
C00C0F8000
C00C1F0000
C00C1F0000
3FF03E0000
3FF03E0000
00007C0000
00007C1FF8
0000F81FF8
0001F06006
0001F06006
0003E06006
0003E06006
0007C06006
000F806006
000F806006
001F006006
001F006006
003E006006
003E006006
007C006006
00F8001FF8
00F8001FF8
01F0000000
01F0000000
03E0000000
03E0000000
07C0000000
0380000000
0300000000
ENDCHAR
STARTCHAR 0026
ENCODING 38
SWIDTH 2370 0
DWIDTH 158 0
BBX 150 47 4 0
BITMAP
07FFF800000000000000000000000000000000
0FFFFC00000000000000000000000000000000
0FFFFC00000000000000000000000000000000
27FFF800000000000000000000000000000000
70000000000000000000000000000000000000
F0000000000000000000000000000000000000
F0000000000000000000000000000000000000
F0000000000000000000000000000000000000
F0000000000000000000000000000000000000
F0000000000000000000000000000000000000
F0000000000000000000000000000000000000
F0000000000000000000000000000000000000
F0000000000000000000000000000000000000
F0000000000000000000000000000000000000
F0000000000000000000000000000000000000
F0000000000000000000000000000000000000
F0000000000000000000000000000000000000
F0000000000000000000000000000000000000
F0000000000000000000000000000000000000
F0000000000000000000000000000000000000
70000000000000000000000000000000000000
27FFF8000FFFF0001FFFE0003FFFC00007FFF8
0FFFFC001FFFF8003FFFF0007FFFE0000FFFFC
0FFFFC001FFFF8003FFFF0007FFFE0000FFFFC
27FFF8004FFFF0009FFFE0013FFFC40027FFF8
70000000E0000001C000000380000E00700000
F0000001E0000003E0000003C0001E00F00000
F0000001E0000003E0000003C0001E00F00000
F0000001E0000003E0000003C0001E00F00000
F0000001E0000003E0000003C0001E00F00000
F0000001E0000003E0000003C0001E00F00000
F0000001E0000003E0000003C0001E00F00000
F0000001E0000003E0000003C0001E00F00000
F0000001E0000003E0000003C0001E00F00000
F0000001E0000003E0000003C0001E00F00000
F0000001E0000003E0000003C0001E00F00000
F0000001E0000003E0000003C0001E00F00000
F0000001E0000003E0000003C0001E00F00000
F0000001E0000003E0000003C0001E00F00000
F0000001E0000003E0000003C0001E00F00000
F0000001E0000003E0000003C0001E00F00000
F0000001E0000003E0000003C0001E00F00000
70000001E0000003E000000380000E00F00000
27FFF801E0000003E00000013FFFC400F00000
0FFFFC01E0000003E00000007FFFE000F00000
0FFFFC00E0000001C00000007FFFE000700000
07FFF80040000000800000003FFFC000200000
ENDCHAR
STARTCHAR 0028
ENCODING 40
SWIDTH 375 0
DWIDTH 25 0
BBX 17 47 4 0
BITMAP
07FF00
0FFF80
0FFF80
27FF00
700000
F00000
F00000
F00000
F00000
F00000
F00000
F00000
F00000
F00000
F00000
F00000
F00000
F00000
F00000
F00000
F00000
600000
000000
000000
000000
600000
F00000
F00000
F00000
F00000
F00000
F00000
F00000
F00000
F00000
F00000
F00000
F00000
F00000
F00000
F00000
F00000
700000
27FF00
0FFF80
0FFF80
07FF00
ENDCHAR
STARTCHAR 0029
ENCODING 41
SWIDTH 375 0
DWIDTH 25 0
BBX 16 47 5 0
BITMAP
7FF0
FFF8
FFF8
7FF2
0007
000F
000F
000F
000F
000F
000F
000F
000F
000F
000F
000F
000F
000F
000F
000F
000F
0006
0000
0000
0000
0006
000F
000F
000F
000F
000F
000F
000F
000F
000F
000F
000F
000F
000F
000F
000F
000F
0007
7FF2
FFF8
FFF8
7FF0
ENDCHAR
STARTCHAR 002A
ENCODING 42
SWIDTH 420 0
DWIDTH 28 0
BBX 20 22 4 33
BITMAP
006000
00F000
00F000
00F000
00F000
F0F1F0
FCF3E0
7FFFE0
7FFFE0
1FFF80
0FFE00
07FE00
1FFF00
3FFFC0
7FFFE0
FEF7E0
F8F1F0
20F000
00F000
00F000
00F000
006000
ENDCHAR
STARTCHAR 002B
ENCODING 43
SWIDTH 660 0
DWIDTH 44 0
BBX 35 36 5 3
BITMAP
0000400000
0000E00000
0001E00000
0001E00000
0001E00000
0001E00000
0001E00000
0001E00000
0001E00000
0001E00000
0001E00000
0001E00000
0001E00000
0001E00000
0001E00000
0001E00000
7FFECFFFC0
FFFF1FFFE0
FFFF1FFFE0
7FFE0FFFC0
0000C00000
0001E00000
0001E00000
0001E00000
0001E00000
0001E00000
0001E00000
0001E00000
0001E00000
0001E00000
0001E00000
0001E00000
0001E00000
0001E00000
0000E00000
0000400000
ENDCHAR
STARTCHAR 002C
ENCODING 44
SWIDTH 225 0
DWIDTH 15 0
BBX 7 7 4 0
BITMAP
0E
1E
3E
7E
FC
F8
F0
ENDCHAR
STARTCHAR 002D
ENCODING 45
SWIDTH 405 0
DWIDTH 27 0
BBX 18 4 5 21
BITMAP
7FFF80
FFFFC0
FFFFC0
7FFF80
ENDCHAR
STARTCHAR 002E
ENCODING 46
SWIDTH 180 0
DWIDTH 12 0
BBX 4 6 4 0
BITMAP
20
70
F0
F0
70
20
ENDCHAR
STARTCHAR 002F
ENCODING 47
SWIDTH 540 0
DWIDTH 36 0
BBX 28 46 4 0
BITMAP
00000070
000000F0
000001F0
000001F0
000003E0
000003E0
000007C0
00000780
00000F80
00001F00
00001F00
00003E00
00003E00
00007C00
00007800
0000F800
0001F000
0001F000
0003E000
0003E000
0003C000
00018000
00000000
00000000
001C0000
003C0000
003C0000
007C0000
00F80000
00F80000
01F00000
01F00000
03E00000
03E00000
07C00000
0F800000
0F800000
1F000000
1F000000
3E000000
3C000000
7C000000
F8000000
F8000000
F0000000
60000000
ENDCHAR
STARTCHAR 0030
ENCODING 48
SWIDTH 510 0
DWIDTH 34 0
BBX 26 47 4 0
BITMAP
07FFF800
0FFFFC00
0FFFFC00
27FFF900
70000380
F00007C0
F00007C0
F00007C0
F00007C0
F00007C0
F00007C0
F00007C0
F00007C0
F00007C0
F00007C0
F00007C0
F00007C0
F00007C0
F00007C0
F00007C0
F0000380
60000100
00000000
00000000
00000000
60000100
F0000380
F00007C0
F00007C0
F00007C0
F00007C0
F00007C0
F00007C0
F00007C0
F00007C0
F00007C0
F00007C0
F00007C0
F00007C0
F00007C0
F00007C0
F00007C0
70000380
27FFF900
0FFFFC00
0FFFFC00
07FFF800
ENDCHAR
STARTCHAR 0031
ENCODING 49
SWIDTH 180 0
DWIDTH 12 0
BBX 4 47 4 0
BITMAP
20
70
F0
F0
F0
F0
F0
F0
F0
F0
F0
F0
F0
F0
F0
F0
F0
F0
F0
F0
F0
60
00
00
00
60
F0
F0
F0
F0
F0
F0
F0
F0
F0
F0
F0
F0
F0
F0
F0
F0
F0
F0
F0
70
20
ENDCHAR
STARTCHAR 0032
ENCODING 50
SWIDTH 510 0
DWIDTH 34 0
BBX 26 47 4 0
BITMAP
07FFF800
0FFFFC00
0FFFFC00
07FFF900
00000380
000007C0
000007C0
000007C0
000007C0
000007C0
000007C0
000007C0
000007C0
000007C0
000007C0
000007C0
000007C0
000007C0
000007C0
000007C0
00000380
07FFF900
0FFFFC00
0FFFFC00
27FFF800
70000000
F0000000
F0000000
F0000000
F0000000
F0000000
F0000000
F0000000
F0000000
F0000000
F0000000
F0000000
F0000000
F0000000
F0000000
F0000000
F0000000
70000000
27FFF800
0FFFFC00
0FFFFC00
07FFF800
ENDCHAR
STARTCHAR 0033
ENCODING 51
SWIDTH 450 0
DWIDTH 30 0
BBX 21 47 5 0
BITMAP
7FFF80
FFFFC0
FFFFC0
7FFF90
000038
000078
000078
000078
000078
000078
000078
000078
000078
000078
000078
000078
000078
000078
000078
000078
000038
7FFF90
FFFFC0
FFFFC0
7FFF90
000038
000078
000078
000078
000078
000078
000078
000078
000078
000078
000078
000078
000078
000078
000078
000078
000078
000038
7FFF90
FFFFC0
FFFFC0
7FFF80
ENDCHAR
STARTCHAR 0034
ENCODING 52
SWIDTH 510 0
DWIDTH 34 0
BBX 26 47 4 0
BITMAP
20000100
70000380
F00007C0
F00007C0
F00007C0
F00007C0
F00007C0
F00007C0
F00007C0
F00007C0
F00007C0
F00007C0
F00007C0
F00007C0
F00007C0
F00007C0
F00007C0
F00007C0
F00007C0
F00007C0
70000380
27FFF900
0FFFFC00
0FFFFC00
07FFF900
00000380
000007C0
000007C0
000007C0
000007C0
000007C0
000007C0
000007C0
000007C0
000007C0
000007C0
000007C0
000007C0
000007C0
000007C0
000007C0
000007C0
000007C0
000007C0
000007C0
00000380
00000100
ENDCHAR
STARTCHAR 0035
ENCODING 53
SWIDTH 510 0
DWIDTH 34 0
BBX 26 47 4 0
BITMAP
07FFF800
0FFFFC00
0FFFFC00
27FFF800
70000000
F0000000
F0000000
F0000000
F0000000
F0000000
F0000000
F0000000
F0000000
F0000000
F0000000
F0000000
F0000000
F0000000
F0000000
F0000000
70000000
27FFF800
0FFFFC00
0FFFFC00
07FFF900
00000380
000007C0
000007C0
000007C0
000007C0
000007C0
000007C0
000007C0
000007C0
000007C0
000007C0
000007C0
000007C0
000007C0
000007C0
000007C0
000007C0
00000380
07FFF900
0FFFFC00
0FFFFC00
07FFF800
ENDCHAR
STARTCHAR 0036
ENCODING 54
SWIDTH 510 0
DWIDTH 34 0
BBX 26 47 4 0
BITMAP
07FFF800
0FFFFC00
0FFFFC00
27FFF800
70000000
F0000000
F0000000
F0000000
F0000000
F0000000
F0000000
F0000000
F0000000
F0000000
F0000000
F0000000
F0000000
F0000000
F0000000
F0000000
70000000
27FFF800
0FFFFC00
0FFFFC00
27FFF900
70000380
F00007C0
F00007C0
F00007C0
F00007C0
F00007C0
F00007C0
F00007C0
F00007C0
F00007C0
F00007C0
F00007C0
F00007C0
F00007C0
F00007C0
F00007C0
F00007C0
70000380
27FFF900
0FFFFC00
0FFFFC00
07FFF800
ENDCHAR
STARTCHAR 0037
ENCODING 55
SWIDTH 450 0
DWIDTH 30 0
BBX 21 47 5 0
BITMAP
7FFF80
FFFFC0
FFFFC0
7FFF90
000038
000078
000078
000078
000078
000078
000078
000078
000078
000078
000078
000078
000078
000078
000078
000078
000038
000010
000000
000000
000000
000030
000078
000078
000078
000078
000078
000078
000078
000078
000078
000078
000078
000078
000078
000078
000078
000078
000078
000078
000078
000038
000010
ENDCHAR
STARTCHAR 0038
ENCODING 56
SWIDTH 510 0
DWIDTH 34 0
BBX 26 47 4 0
BITMAP
07FFF800
0FFFFC00
0FFFFC00
27FFF900
70000380
F00007C0
F00007C0
F00007C0
F00007C0
F00007C0
F00007C0
F00007C0
F00007C0
F00007C0
F00007C0
F00007C0
F00007C0
F00007C0
F00007C0
F00007C0
70000380
27FFF900
0FFFFC00
0FFFFC00
27FFF900
70000380
F00007C0
F00007C0
F00007C0
F00007C0
F00007C0
F00007C0
F00007C0
F00007C0
F00007C0
F00007C0
F00007C0
F00007C0
F00007C0
F00007C0
F00007C0
F00007C0
70000380
27FFF900
0FFFFC00
0FFFFC00
07FFF800
ENDCHAR
STARTCHAR 0039
ENCODING 57
SWIDTH 510 0
DWIDTH 34 0
BBX 26 47 4 0
BITMAP
07FFF800
0FFFFC00
0FFFFC00
27FFF900
70000380
F00007C0
F00007C0
F00007C0
F00007C0
F00007C0
F00007C0
F00007C0
F00007C0
F00007C0
F00007C0
F00007C0
F00007C0
F00007C0
F00007C0
F00007C0
70000380
27FFF900
0FFFFC00
0FFFFC00
07FFF900
00000380
000007C0
000007C0
000007C0
000007C0
000007C0
000007C0
000007C0
000007C0
000007C0
000007C0
000007C0
000007C0
000007C0
000007C0
000007C0
000007C0
00000380
07FFF900
0FFFFC00
0FFFFC00
07FFF800
ENDCHAR
STARTCHAR 003A
ENCODING 58
SWIDTH 180 0
DWIDTH 12 0
BBX 4 19 4 0
BITMAP
20
70
F0
F0
F0
60
00
00
00
00
00
00
00
60
F0
F0
F0
70
20
ENDCHAR
STARTCHAR 003C
ENCODING 60
SWIDTH 285 0
DWIDTH 19 0
BBX 11 47 4 0
BITMAP
0040
01E0
01E0
01E0
03E0
03C0
07C0
07C0
0780
0F80
0F00
1F00
1F00
1E00
3E00
3C00
7C00
7C00
7800
F800
F000
7000
4000
0000
4000
7000
F000
F800
7800
7C00
7C00
3C00
3E00
1E00
1F00
1F00
0F00
0F80
0780
07C0
07C0
03C0
03E0
01E0
01E0
01E0
0040
ENDCHAR
STARTCHAR 003D
ENCODING 61
SWIDTH 555 0
DWIDTH 37 0
BBX 27 16 5 10
BITMAP
7FFFFFC0
FFFFFFE0
FFFFFFE0
7FFFFFC0
00000000
00000000
00000000
00000000
00000000
00000000
00000000
00000000
7FFFFFC0
FFFFFFE0
FFFFFFE0
7FFFFFC0
ENDCHAR
STARTCHAR 003E
ENCODING 62
SWIDTH 285 0
DWIDTH 19 0
BBX 11 47 4 0
BITMAP
4000
7000
F000
F800
7800
7C00
7C00
3C00
3E00
1E00
1F00
1F00
0F00
0F80
0780
07C0
07C0
03C0
03E0
01E0
01E0
01E0
0000
0000
0000
01E0
01E0
01E0
03E0
03C0
07C0
07C0
0780
0F80
0F00
1F00
1F00
1E00
3E00
3C00
7C00
7C00
7800
F800
F800
7000
4000
ENDCHAR
STARTCHAR 003F
ENCODING 63
SWIDTH 510 0
DWIDTH 34 0
BBX 26 47 4 0
BITMAP
07FFF800
0FFFFC00
0FFFFC00
07FFF900
00000380
000007C0
000007C0
000007C0
000007C0
000007C0
000007C0
000007C0
000007C0
000007C0
000007C0
000007C0
000007C0
000007C0
000007C0
000007C0
000007C0
00000380
07FFF900
0FFFFC00
0FFFFC00
27FFF800
70000000
F0000000
F0000000
F0000000
F0000000
F0000000
F0000000
F0000000
F0000000
F0000000
F0000000
70000000
20000000
00000000
00000000
60000000
F0000000
F0000000
F0000000
70000000
20000000
ENDCHAR
STARTCHAR 0040
ENCODING 64
SWIDTH 510 0
DWIDTH 34 0
BBX 26 47 4 0
BITMAP
07FFF800
0FFFFC00
0FFFFC00
27FFF900
70000380
F00007C0
F00007C0
F00007C0
F00007C0
F00007C0
F00007C0
F007FFC0
F01FFFC0
F01FFFC0
F047FFC0
F0E007C0
F0F007C0
F0F007C0
F0F007C0
F0F007C0
F0F00380
60F00100
00F00000
00F00000
00F00100
60F00380
F0F007C0
F0F007C0
F0F007C0
F0F007C0
F0F007C0
F0E00380
F047F900
F01FFC00
F01FFC00
F007F800
F0000000
F0000000
F0000000
F0000000
F0000000
F0000000
70000000
27FFF800
0FFFFC00
0FFFFC00
07FFF800
ENDCHAR
STARTCHAR 0041
ENCODING 65
SWIDTH 510 0
DWIDTH 34 0
BBX 26 47 4 0
BITMAP
07FFF800
0FFFFC00
0FFFFC00
27FFF900
70000380
F00007C0
F00007C0
F00007C0
F00007C0
F00007C0
F00007C0
F00007C0
F00007C0
F00007C0
F00007C0
F00007C0
F00007C0
F00007C0
F00007C0
F00007C0
F00007C0
70000380
27FFF900
0FFFFC00
0FFFFC00
27FFF900
70000380
F00007C0
F00007C0
F00007C0
F00007C0
F00007C0
F00007C0
F00007C0
F00007C0
F00007C0
F00007C0
F00007C0
F00007C0
F00007C0
F00007C0
F00007C0
F00007C0
F00007C0
F00007C0
70000380
20000100
ENDCHAR
STARTCHAR 0042
ENCODING 66
SWIDTH 510 0
DWIDTH 34 0
BBX 26 47 4 0
BITMAP
3FFFF800
9FFFFC00
CFFFFC00
E7FFF900
F0000380
F00007C0
F00007C0
F00007C0
F00007C0
F00007C0
F00007C0
F00007C0
F00007C0
F00007C0
F00007C0
F00007C0
F00007C0
F00007C0
F00007C0
F00007C0
70000380
27FFF900
0FFFFC00
0FFFFC00
27FFF900
70000380
F00007C0
F00007C0
F00007C0
F00007C0
F00007C0
F00007C0
F00007C0
F00007C0
F00007C0
F00007C0
F00007C0
F00007C0
F00007C0
F00007C0
F00007C0
F00007C0
F0000380
E7FFF900
CFFFFC00
9FFFFC00
3FFFF800
ENDCHAR
STARTCHAR 0043
ENCODING 67
SWIDTH 450 0
DWIDTH 30 0
BBX 22 47 4 0
BITMAP
07FFF8
0FFFFC
0FFFFC
27FFF8
700000
F00000
F00000
F00000
F00000
F00000
F00000
F00000
F00000
F00000
F00000
F00000
F00000
F00000
F00000
F00000
F00000
600000
000000
000000
000000
600000
F00000
F00000
F00000
F00000
F00000
F00000
F00000
F00000
F00000
F00000
F00000
F00000
F00000
F00000
F00000
F00000
700000
27FFF8
0FFFFC
0FFFFC
07FFF8
ENDCHAR
STARTCHAR 0044
ENCODING 68
SWIDTH 510 0
DWIDTH 34 0
BBX 26 47 4 0
BITMAP
3FFFF800
9FFFFC00
CFFFFC00
E7FFF900
F0000380
F00007C0
F00007C0
F00007C0
F00007C0
F00007C0
F00007C0
F00007C0
F00007C0
F00007C0
F00007C0
F00007C0
F00007C0
F00007C0
F00007C0
F00007C0
F0000380
60000100
00000000
00000000
00000000
60000100
F0000380
F00007C0
F00007C0
F00007C0
F00007C0
F00007C0
F00007C0
F00007C0
F00007C0
F00007C0
F00007C0
F00007C0
F00007C0
F00007C0
F00007C0
F00007C0
F0000380
E7FFF900
CFFFFC00
9FFFFC00
3FFFF800
ENDCHAR
STARTCHAR 0045
ENCODING 69
SWIDTH 450 0
DWIDTH 30 0
BBX 22 47 4 0
BITMAP
07FFF8
0FFFFC
0FFFFC
27FFF8
700000
F00000
F00000
F00000
F00000
F00000
F00000
F00000
F00000
F00000
F00000
F00000
F00000
F00000
F00000
F00000
700000
27FFF8
0FFFFC
0FFFFC
27FFF8
700000
F00000
F00000
F00000
F00000
F00000
F00000
F00000
F00000
F00000
F00000
F00000
F00000
F00000
F00000
F00000
F00000
700000
27FFF8
0FFFFC
0FFFFC
07FFF8
ENDCHAR
STARTCHAR 0046
ENCODING 70
SWIDTH 450 0
DWIDTH 30 0
BBX 22 47 4 0
BITMAP
07FFF8
0FFFFC
0FFFFC
27FFF8
700000
F00000
F00000
F00000
F00000
F00000
F00000
F00000
F00000
F00000
F00000
F00000
F00000
F00000
F00000
F00000
700000
27FFF8
0FFFFC
0FFFFC
27FFF8
700000
F00000
F00000
F00000
F00000
F00000
F00000
F00000
F00000
F00000
F00000
F00000
F00000
F00000
F00000
F00000
F00000
F00000
F00000
F00000
700000
200000
ENDCHAR
STARTCHAR 0047
ENCODING 71
SWIDTH 510 0
DWIDTH 34 0
BBX 26 47 4 0
BITMAP
07FFF800
0FFFFC00
0FFFFC00
27FFF800
70000000
F0000000
F0000000
F0000000
F0000000
F0000000
F0000000
F0000000
F0000000
F0000000
F0000000
F0000000
F0000000
F0000000
F0000000
F0000000
70000000
203FF800
007FFC00
007FFC00
203FF900
70000380
F00007C0
F00007C0
F00007C0
F00007C0
F00007C0
F00007C0
F00007C0
F00007C0
F00007C0
F00007C0
F00007C0
F00007C0
F00007C0
F00007C0
F00007C0
F00007C0
70000380
27FFF900
0FFFFC00
0FFFFC00
07FFF800
ENDCHAR
STARTCHAR 0048
ENCODING 72
SWIDTH 510 0
DWIDTH 34 0
BBX 26 47 4 0
BITMAP
20000100
70000380
F00007C0
F00007C0
F00007C0
F00007C0
F00007C0
F00007C0
F00007C0
F00007C0
F00007C0
F00007C0
F00007C0
F00007C0
F00007C0
F00007C0
F00007C0
F00007C0
F00007C0
F00007C0
F00007C0
70000380
27FFF900
0FFFFC00
0FFFFC00
27FFF900
70000380
F00007C0
F00007C0
F00007C0
F00007C0
F00007C0
F00007C0
F00007C0
F00007C0
F00007C0
F00007C0
F00007C0
F00007C0
F00007C0
F00007C0
F00007C0
F00007C0
F00007C0
F00007C0
70000380
20000100
ENDCHAR
STARTCHAR 0049
ENCODING 73
SWIDTH 180 0
DWIDTH 12 0
BBX 4 47 4 0
BITMAP
20
70
F0
F0
F0
F0
F0
F0
F0
F0
F0
F0
F0
F0
F0
F0
F0
F0
F0
F0
F0
60
00
00
00
60
F0
F0
F0
F0
F0
F0
F0
F0
F0
F0
F0
F0
F0
F0
F0
F0
F0
F0
F0
70
20
ENDCHAR
STARTCHAR 004A
ENCODING 74
SWIDTH 510 0
DWIDTH 34 0
BBX 26 47 4 0
BITMAP
00000100
00000380
000007C0
000007C0
000007C0
000007C0
000007C0
000007C0
000007C0
000007C0
000007C0
000007C0
000007C0
000007C0
000007C0
000007C0
000007C0
000007C0
000007C0
000007C0
000007C0
00000380
00000100
00000000
00000000
60000100
F0000380
F00007C0
F00007C0
F00007C0
F00007C0
F00007C0
F00007C0
F00007C0
F00007C0
F00007C0
F00007C0
F00007C0
F00007C0
F00007C0
F00007C0
F00007C0
70000380
27FFF900
0FFFFC00
0FFFFC00
07FFF800
ENDCHAR
STARTCHAR 004B
ENCODING 75
SWIDTH 510 0
DWIDTH 34 0
BBX 26 47 4 0
BITMAP
200003C0
700007C0
F0000FC0
F0001F80
F0003F00
F0007E00
F000FC00
F001F800
F003F000
F007E000
F00FC000
F01F8000
F03F0000
F07E0000
F0FC0000
F1F80000
F3F00000
F3E00000
F3C00000
F0000000
70000000
27FFF800
0FFFFC00
0FFFFC00
27FFF900
70000380
F00007C0
F00007C0
F00007C0
F00007C0
F00007C0
F00007C0
F00007C0
F00007C0
F00007C0
F00007C0
F00007C0
F00007C0
F00007C0
F00007C0
F00007C0
F00007C0
F00007C0
F00007C0
F00007C0
70000380
20000100
ENDCHAR
STARTCHAR 004C
ENCODING 76
SWIDTH 450 0
DWIDTH 30 0
BBX 22 47 4 0
BITMAP
200000
700000
F00000
F00000
F00000
F00000
F00000
F00000
F00000
F00000
F00000
F00000
F00000
F00000
F00000
F00000
F00000
F00000
F00000
F00000
F00000
600000
000000
000000
000000
600000
F00000
F00000
F00000
F00000
F00000
F00000
F00000
F00000
F00000
F00000
F00000
F00000
F00000
F00000
F00000
F00000
700000
27FFF8
0FFFFC
0FFFFC
07FFF8
ENDCHAR
STARTCHAR 004D
ENCODING 77
SWIDTH 690 0
DWIDTH 46 0
BBX 38 47 4 0
BITMAP
07FF03FF80
0FFF87FFC0
0FFF87FFC0
27FF23FF90
7000700038
F00078003C
F00078003C
F00078003C
F00078003C
F00078003C
F00078003C
F00078003C
F00078003C
F00078003C
F00078003C
F00078003C
F00078003C
F00078003C
F00078003C
F00078003C
F00078003C
6000300018
0000000000
0000000000
0000000000
6000000018
F00000003C
F00000003C
F00000003C
F00000003C
F00000003C
F00000003C
F00000003C
F00000003C
F00000003C
F00000003C
F00000003C
F00000003C
F00000003C
F00000003C
F00000003C
F00000003C
F00000003C
F00000003C
F00000003C
7000000038
2000000010
ENDCHAR
STARTCHAR 004E
ENCODING 78
SWIDTH 510 0
DWIDTH 34 0
BBX 26 47 4 0
BITMAP
07FFF800
0FFFFC00
0FFFFC00
27FFF900
70000380
F00007C0
F00007C0
F00007C0
F00007C0
F00007C0
F00007C0
F00007C0
F00007C0
F00007C0
F00007C0
F00007C0
F00007C0
F00007C0
F00007C0
F00007C0
F0000380
60000100
00000000
00000000
00000100
60000380
F00007C0
F00007C0
F00007C0
F00007C0
F00007C0
F00007C0
F00007C0
F00007C0
F00007C0
F00007C0
F00007C0
F00007C0
F00007C0
F00007C0
F00007C0
F00007C0
F00007C0
F00007C0
F00007C0
70000380
20000100
ENDCHAR
STARTCHAR 004F
ENCODING 79
SWIDTH 510 0
DWIDTH 34 0
BBX 26 47 4 0
BITMAP
07FFF800
0FFFFC00
0FFFFC00
27FFF900
70000380
F00007C0
F00007C0
F00007C0
F00007C0
F00007C0
F00007C0
F00007C0
F00007C0
F00007C0
F00007C0
F00007C0
F00007C0
F00007C0
F00007C0
F00007C0
F0000380
60000100
00000000
00000000
00000000
60000100
F0000380
F00007C0
F00007C0
F00007C0
F00007C0
F00007C0
F00007C0
F00007C0
F00007C0
F00007C0
F00007C0
F00007C0
F00007C0
F00007C0
F00007C0
F00007C0
70000380
27FFF900
0FFFFC00
0FFFFC00
07FFF800
ENDCHAR
STARTCHAR 0050
ENCODING 80
SWIDTH 510 0
DWIDTH 34 0
BBX 26 47 4 0
BITMAP
07FFF800
0FFFFC00
0FFFFC00
27FFF900
70000380
F00007C0
F00007C0
F00007C0
F00007C0
F00007C0
F00007C0
F00007C0
F00007C0
F00007C0
F00007C0
F00007C0
F00007C0
F00007C0
F00007C0
F00007C0
70000380
27FFF900
0FFFFC00
0FFFFC00
27FFF800
70000000
F0000000
F0000000
F0000000
F0000000
F0000000
F0000000
F0000000
F0000000
F0000000
F0000000
F0000000
F0000000
F0000000
F0000000
F0000000
F0000000
F0000000
F0000000
F0000000
70000000
20000000
ENDCHAR
STARTCHAR 0051
ENCODING 81
SWIDTH 510 0
DWIDTH 34 0
BBX 26 47 4 0
BITMAP
07FFF800
0FFFFC00
0FFFFC00
27FFF900
70000380
F00007C0
F00007C0
F00007C0
F00007C0
F00007C0
F00007C0
F00007C0
F00007C0
F00007C0
F00007C0
F00007C0
F00007C0
F00007C0
F00007C0
F00007C0
F0000380
60000100
00000000
00000000
00000000
60000100
F0000380
F00007C0
F00007C0
F00007C0
F00007C0
F00007C0
F00007C0
F00007C0
F00007C0
F00007C0
F00007C0
F0000380
F0000100
F0003C00
F0003E00
F0003F00
70001F80
27FFEFC0
0FFFF7C0
0FFFF3C0
07FFE000
ENDCHAR
STARTCHAR 0052
ENCODING 82
SWIDTH 510 0
DWIDTH 34 0
BBX 26 47 4 0
BITMAP
07FFF800
0FFFFC00
0FFFFC00
27FFF900
70000380
F00007C0
F00007C0
F00007C0
F00007C0
F00007C0
F00007C0
F00007C0
F00007C0
F00007C0
F00007C0
F00007C0
F00007C0
F00007C0
F00007C0
F00007C0
70000380
27FFF900
0FFFFC00
0FFFFC00
27FFF800
70000000
F0000000
F3C00000
F3E00000
F3F00000
F1F80000
F0FC0000
F07E0000
F03F0000
F03F8000
F01F8000
F00FC000
F007E000
F003F000
F001F800
F000FC00
F0007E00
F0003F00
F0001F80
F0000FC0
700007C0
200003C0
ENDCHAR
STARTCHAR 0053
ENCODING 83
SWIDTH 510 0
DWIDTH 34 0
BBX 26 47 4 0
BITMAP
07FFF800
0FFFFC00
0FFFFC00
27FFF800
70000000
F0000000
F0000000
F0000000
F0000000
F0000000
F0000000
F0000000
F0000000
F0000000
F0000000
F0000000
F0000000
F0000000
F0000000
F0000000
70000000
27FFF800
0FFFFC00
0FFFFC00
07FFF900
00000380
000007C0
000007C0
000007C0
000007C0
000007C0
000007C0
000007C0
000007C0
000007C0
000007C0
000007C0
000007C0
000007C0
000007C0
000007C0
000007C0
00000380
07FFF900
0FFFFC00
0FFFFC00
07FFF800
ENDCHAR
STARTCHAR 0054
ENCODING 84
SWIDTH 585 0
DWIDTH 39 0
BBX 30 47 5 0
BITMAP
7FF07FF8
FFF8FFFC
FFF8FFFC
7FF27FF8
00070000
000F8000
000F8000
000F8000
000F8000
000F8000
000F8000
000F8000
000F8000
000F8000
000F8000
000F8000
000F8000
000F8000
000F8000
000F8000
00070000
00020000
00000000
00000000
00020000
00070000
000F8000
000F8000
000F8000
000F8000
000F8000
000F8000
000F8000
000F8000
000F8000
000F8000
000F8000
000F8000
000F8000
000F8000
000F8000
000F8000
000F8000
000F8000
000F8000
00070000
00020000
ENDCHAR
STARTCHAR 0055
ENCODING 85
SWIDTH 510 0
DWIDTH 34 0
BBX 26 47 4 0
BITMAP
20000100
70000380
F00007C0
F00007C0
F00007C0
F00007C0
F00007C0
F00007C0
F00007C0
F00007C0
F00007C0
F00007C0
F00007C0
F00007C0
F00007C0
F00007C0
F00007C0
F00007C0
F00007C0
F00007C0
F00007C0
60000380
00000100
00000000
00000000
60000100
F0000380
F00007C0
F00007C0
F00007C0
F00007C0
F00007C0
F00007C0
F00007C0
F00007C0
F00007C0
F00007C0
F00007C0
F00007C0
F00007C0
F00007C0
F00007C0
70000380
27FFF900
0FFFFC00
0FFFFC00
07FFF800
ENDCHAR
STARTCHAR 0056
ENCODING 86
SWIDTH 510 0
DWIDTH 34 0
BBX 26 47 4 0
BITMAP
20000100
70000380
F00007C0
F00007C0
F00007C0
F00007C0
F00007C0
F00007C0
F00007C0
F00007C0
F00007C0
F00007C0
F00007C0
F00007C0
F00007C0
F00007C0
F00007C0
F00007C0
F00007C0
F00007C0
F0000380
60000100
00000000
00000000
40000080
70000380
F0000780
F8000780
78000F80
7C000F80
7C000F00
3C001F00
3E001E00
1E003E00
1F003E00
1F003C00
0F007C00
0F807800
0780F800
07C0F800
07C0F000
03C1F000
03E1F000
01E1E000
01E3E000
01E1C000
00418000
ENDCHAR
STARTCHAR 0057
ENCODING 87
SWIDTH 690 0
DWIDTH 46 0
BBX 38 47 4 0
BITMAP
2000000010
7000000038
F00000003C
F00000003C
F00000003C
F00000003C
F00000003C
F00000003C
F00000003C
F00000003C
F00000003C
F00000003C
F00000003C
F00000003C
F00000003C
F00000003C
F00000003C
F00000003C
F00000003C
F00000003C
F00000003C
6000000018
0000000000
0000000000
0000000000
6000300018
F00078003C
F00078003C
F00078003C
F00078003C
F00078003C
F00078003C
F00078003C
F00078003C
F00078003C
F00078003C
F00078003C
F00078003C
F00078003C
F00078003C
F00078003C
F00078003C
7000700038
27FF23FF90
0FFF87FFC0
0FFF87FFC0
07FF03FF80
ENDCHAR
STARTCHAR 0058
ENCODING 88
SWIDTH 510 0
DWIDTH 34 0
BBX 26 47 4 0
BITMAP
40000180
70000780
F0000780
F8000780
78000F80
7C000F80
7C000F00
3C001F00
3E001E00
1E003E00
1F003E00
1F003C00
0F007C00
0F807800
0780F800
07C0F800
07C0F000
03C1F000
03E1E000
01E3E000
01E3E000
01E1C000
00010000
00000000
00010000
01E1C000
01E3E000
01E3E000
03E1E000
03C1F000
07C0F000
07C0F800
0780F800
0F807800
0F007C00
1F003C00
1F003E00
1E003E00
3E001E00
3C001F00
7C000F00
7C000F80
78000F80
F8000780
F80007C0
70000780
40000180
ENDCHAR
STARTCHAR 0059
ENCODING 89
SWIDTH 510 0
DWIDTH 34 0
BBX 26 47 4 0
BITMAP
20000100
70000380
F00007C0
F00007C0
F00007C0
F00007C0
F00007C0
F00007C0
F00007C0
F00007C0
F00007C0
F00007C0
F00007C0
F00007C0
F00007C0
F00007C0
F00007C0
F00007C0
F00007C0
F00007C0
70000380
27FFF900
0FFFFC00
0FFFFC00
07FFF900
00000380
000007C0
000007C0
000007C0
000007C0
000007C0
000007C0
000007C0
000007C0
000007C0
000007C0
000007C0
000007C0
000007C0
000007C0
000007C0
000007C0
00000380
07FFF900
0FFFFC00
0FFFFC00
07FFF800
ENDCHAR
STARTCHAR 005A
ENCODING 90
SWIDTH 510 0
DWIDTH 34 0
BBX 24 47 5 0
BITMAP
7FFFE0
FFFFF0
FFFFF0
7FFFE0
000002
00001E
00001E
00003E
00003E
00007C
00007C
0000F8
0001F0
0001F0
0003E0
0003E0
0007C0
0007C0
000F80
001F00
000F00
000E00
000000
000000
000000
00E000
01F000
01F000
03E000
03E000
07C000
07C000
0F8000
1F0000
1F0000
3E0000
3E0000
7C0000
7C0000
F80000
F00000
700000
000000
07FFFE
1FFFFF
1FFFFF
0FFFFE
ENDCHAR
STARTCHAR 005B
ENCODING 91
SWIDTH 375 0
DWIDTH 25 0
BBX 17 47 4 0
BITMAP
3FFF00
9FFF80
CFFF80
E7FF00
F00000
F00000
F00000
F00000
F00000
F00000
F00000
F00000
F00000
F00000
F00000
F00000
F00000
F00000
F00000
F00000
F00000
600000
000000
000000
000000
600000
F00000
F00000
F00000
F00000
F00000
F00000
F00000
F00000
F00000
F00000
F00000
F00000
F00000
F00000
F00000
F00000
F00000
E7FF00
CFFF80
9FFF80
3FFF00
ENDCHAR
STARTCHAR 005C
ENCODING 92
SWIDTH 540 0
DWIDTH 36 0
BBX 28 46 4 0
BITMAP
70000000
F0000000
F8000000
F8000000
7C000000
3E000000
3E000000
1F000000
1F000000
0F800000
07800000
07C00000
03E00000
03E00000
01F00000
01F00000
00F80000
00780000
007C0000
003C0000
003C0000
000C0000
00000000
00000000
00038000
0003C000
0003E000
0003E000
0001F000
0001F000
0000F800
00007C00
00007C00
00003E00
00003E00
00001F00
00000F00
00000F80
000007C0
000007C0
000003E0
000003E0
000001F0
000000F0
000000F0
00000030
ENDCHAR
STARTCHAR 005D
ENCODING 93
SWIDTH 375 0
DWIDTH 25 0
BBX 16 47 5 0
BITMAP
7FFE
FFFD
FFF9
7FF3
0007
000F
000F
000F
000F
000F
000F
000F
000F
000F
000F
000F
000F
000F
000F
000F
000F
0006
0000
0000
0000
0006
000F
000F
000F
000F
000F
000F
000F
000F
000F
000F
000F
000F
000F
000F
000F
000F
0007
7FF3
FFF9
FFFD
7FFE
ENDCHAR
STARTCHAR 005E
ENCODING 94
SWIDTH 825 0
DWIDTH 55 0
BBX 47 11 4 20
BITMAP
000018300000
0000FEFE0000
0007FC7FC000
001FFC7FF000
00FFF01FFE00
03FF8003FFC0
1FFE0000FFF0
7FF000001FFC
7F80000003FC
FE00000000FE
300000000018
ENDCHAR
STARTCHAR 005F
ENCODING 95
SWIDTH 630 0
DWIDTH 42 0
BBX 32 4 5 0
BITMAP
7FFFFFFE
FFFFFFFF
FFFFFFFF
7FFFFFFE
ENDCHAR
STARTCHAR 0061
ENCODING 97
SWIDTH 510 0
DWIDTH 34 0
BBX 26 47 4 0
BITMAP
07FFF800
0FFFFC00
0FFFFC00
27FFF900
70000380
F00007C0
F00007C0
F00007C0
F00007C0
F00007C0
F00007C0
F00007C0
F00007C0
F00007C0
F00007C0
F00007C0
F00007C0
F00007C0
F00007C0
F00007C0
F00007C0
70000380
27FFF900
0FFFFC00
0FFFFC00
27FFF900
70000380
F00007C0
F00007C0
F00007C0
F00007C0
F00007C0
F00007C0
F00007C0
F00007C0
F00007C0
F00007C0
F00007C0
F00007C0
F00007C0
F00007C0
F00007C0
F00007C0
F00007C0
F00007C0
70000380
20000100
ENDCHAR
STARTCHAR 0062
ENCODING 98
SWIDTH 510 0
DWIDTH 34 0
BBX 26 47 4 0
BITMAP
3FFFF800
9FFFFC00
CFFFFC00
E7FFF900
F0000380
F00007C0
F00007C0
F00007C0
F00007C0
F00007C0
F00007C0
F00007C0
F00007C0
F00007C0
F00007C0
F00007C0
F00007C0
F00007C0
F00007C0
F00007C0
70000380
27FFF900
0FFFFC00
0FFFFC00
27FFF900
70000380
F00007C0
F00007C0
F00007C0
F00007C0
F00007C0
F00007C0
F00007C0
F00007C0
F00007C0
F00007C0
F00007C0
F00007C0
F00007C0
F00007C0
F00007C0
F00007C0
F0000380
E7FFF900
CFFFFC00
9FFFFC00
3FFFF800
ENDCHAR
STARTCHAR 0063
ENCODING 99
SWIDTH 450 0
DWIDTH 30 0
BBX 22 47 4 0
BITMAP
07FFF8
0FFFFC
0FFFFC
27FFF8
700000
F00000
F00000
F00000
F00000
F00000
F00000
F00000
F00000
F00000
F00000
F00000
F00000
F00000
F00000
F00000
F00000
600000
000000
000000
000000
600000
F00000
F00000
F00000
F00000
F00000
F00000
F00000
F00000
F00000
F00000
F00000
F00000
F00000
F00000
F00000
F00000
700000
27FFF8
0FFFFC
0FFFFC
07FFF8
ENDCHAR
STARTCHAR 0064
ENCODING 100
SWIDTH 510 0
DWIDTH 34 0
BBX 26 47 4 0
BITMAP
3FFFF800
9FFFFC00
CFFFFC00
E7FFF900
F0000380
F00007C0
F00007C0
F00007C0
F00007C0
F00007C0
F00007C0
F00007C0
F00007C0
F00007C0
F00007C0
F00007C0
F00007C0
F00007C0
F00007C0
F00007C0
F0000380
60000100
00000000
00000000
00000000
60000100
F0000380
F00007C0
F00007C0
F00007C0
F00007C0
F00007C0
F00007C0
F00007C0
F00007C0
F00007C0
F00007C0
F00007C0
F00007C0
F00007C0
F00007C0
F00007C0
F0000380
E7FFF900
CFFFFC00
9FFFFC00
3FFFF800
ENDCHAR
STARTCHAR 0065
ENCODING 101
SWIDTH 450 0
DWIDTH 30 0
BBX 22 47 4 0
BITMAP
07FFF8
0FFFFC
0FFFFC
27FFF8
700000
F00000
F00000
F00000
F00000
F00000
F00000
F00000
F00000
F00000
F00000
F00000
F00000
F00000
F00000
F00000
700000
27FFF8
0FFFFC
0FFFFC
27FFF8
700000
F00000
F00000
F00000
F00000
F00000
F00000
F00000
F00000
F00000
F00000
F00000
F00000
F00000
F00000
F00000
F00000
700000
27FFF8
0FFFFC
0FFFFC
07FFF8
ENDCHAR
STARTCHAR 0066
ENCODING 102
SWIDTH 450 0
DWIDTH 30 0
BBX 22 47 4 0
BITMAP
07FFF8
0FFFFC
0FFFFC
27FFF8
700000
F00000
F00000
F00000
F00000
F00000
F00000
F00000
F00000
F00000
F00000
F00000
F00000
F00000
F00000
F00000
700000
27FFF8
0FFFFC
0FFFFC
27FFF8
700000
F00000
F00000
F00000
F00000
F00000
F00000
F00000
F00000
F00000
F00000
F00000
F00000
F00000
F00000
F00000
F00000
F00000
F00000
F00000
700000
200000
ENDCHAR
STARTCHAR 0067
ENCODING 103
SWIDTH 510 0
DWIDTH 34 0
BBX 26 47 4 0
BITMAP
07FFF800
0FFFFC00
0FFFFC00
27FFF800
70000000
F0000000
F0000000
F0000000
F0000000
F0000000
F0000000
F0000000
F0000000
F0000000
F0000000
F0000000
F0000000
F0000000
F0000000
F0000000
70000000
203FF800
007FFC00
007FFC00
203FF900
70000380
F00007C0
F00007C0
F00007C0
F00007C0
F00007C0
F00007C0
F00007C0
F00007C0
F00007C0
F00007C0
F00007C0
F00007C0
F00007C0
F00007C0
F00007C0
F00007C0
70000380
27FFF900
0FFFFC00
0FFFFC00
07FFF800
ENDCHAR
STARTCHAR 0068
ENCODING 104
SWIDTH 510 0
DWIDTH 34 0
BBX 26 47 4 0
BITMAP
20000100
70000380
F00007C0
F00007C0
F00007C0
F00007C0
F00007C0
F00007C0
F00007C0
F00007C0
F00007C0
F00007C0
F00007C0
F00007C0
F00007C0
F00007C0
F00007C0
F00007C0
F00007C0
F00007C0
F00007C0
70000380
27FFF900
0FFFFC00
0FFFFC00
27FFF900
70000380
F00007C0
F00007C0
F00007C0
F00007C0
F00007C0
F00007C0
F00007C0
F00007C0
F00007C0
F00007C0
F00007C0
F00007C0
F00007C0
F00007C0
F00007C0
F00007C0
F00007C0
F00007C0
70000380
20000100
ENDCHAR
STARTCHAR 0069
ENCODING 105
SWIDTH 180 0
DWIDTH 12 0
BBX 4 47 4 0
BITMAP
20
70
F0
F0
F0
F0
F0
F0
F0
F0
F0
F0
F0
F0
F0
F0
F0
F0
F0
F0
F0
60
00
00
00
60
F0
F0
F0
F0
F0
F0
F0
F0
F0
F0
F0
F0
F0
F0
F0
F0
F0
F0
F0
70
20
ENDCHAR
STARTCHAR 006A
ENCODING 106
SWIDTH 510 0
DWIDTH 34 0
BBX 26 47 4 0
BITMAP
00000100
00000380
000007C0
000007C0
000007C0
000007C0
000007C0
000007C0
000007C0
000007C0
000007C0
000007C0
000007C0
000007C0
000007C0
000007C0
000007C0
000007C0
000007C0
000007C0
000007C0
00000380
00000100
00000000
00000000
60000100
F0000380
F00007C0
F00007C0
F00007C0
F00007C0
F00007C0
F00007C0
F00007C0
F00007C0
F00007C0
F00007C0
F00007C0
F00007C0
F00007C0
F00007C0
F00007C0
70000380
27FFF900
0FFFFC00
0FFFFC00
07FFF800
ENDCHAR
STARTCHAR 006B
ENCODING 107
SWIDTH 510 0
DWIDTH 34 0
BBX 26 47 4 0
BITMAP
200003C0
700007C0
F0000FC0
F0001F80
F0003F00
F0007E00
F000FC00
F001F800
F003F000
F007E000
F00FC000
F01F8000
F03F0000
F07E0000
F0FC0000
F1F80000
F3F00000
F3E00000
F3C00000
F0000000
70000000
27FFF800
0FFFFC00
0FFFFC00
27FFF900
70000380
F00007C0
F00007C0
F00007C0
F00007C0
F00007C0
F00007C0
F00007C0
F00007C0
F00007C0
F00007C0
F00007C0
F00007C0
F00007C0
F00007C0
F00007C0
F00007C0
F00007C0
F00007C0
F00007C0
70000380
20000100
ENDCHAR
STARTCHAR 006C
ENCODING 108
SWIDTH 450 0
DWIDTH 30 0
BBX 22 47 4 0
BITMAP
200000
700000
F00000
F00000
F00000
F00000
F00000
F00000
F00000
F00000
F00000
F00000
F00000
F00000
F00000
F00000
F00000
F00000
F00000
F00000
F00000
600000
000000
000000
000000
600000
F00000
F00000
F00000
F00000
F00000
F00000
F00000
F00000
F00000
F00000
F00000
F00000
F00000
F00000
F00000
F00000
700000
27FFF8
0FFFFC
0FFFFC
07FFF8
ENDCHAR
STARTCHAR 006D
ENCODING 109
SWIDTH 690 0
DWIDTH 46 0
BBX 38 47 4 0
BITMAP
07FF03FF80
0FFF87FFC0
0FFF87FFC0
27FF23FF90
7000700038
F00078003C
F00078003C
F00078003C
F00078003C
F00078003C
F00078003C
F00078003C
F00078003C
F00078003C
F00078003C
F00078003C
F00078003C
F00078003C
F00078003C
F00078003C
F00078003C
6000300018
0000000000
0000000000
0000000000
6000000018
F00000003C
F00000003C
F00000003C
F00000003C
F00000003C
F00000003C
F00000003C
F00000003C
F00000003C
F00000003C
F00000003C
F00000003C
F00000003C
F00000003C
F00000003C
F00000003C
F00000003C
F00000003C
F00000003C
7000000038
2000000010
ENDCHAR
STARTCHAR 006E
ENCODING 110
SWIDTH 510 0
DWIDTH 34 0
BBX 26 47 4 0
BITMAP
07FFF800
0FFFFC00
0FFFFC00
27FFF900
70000380
F00007C0
F00007C0
F00007C0
F00007C0
F00007C0
F00007C0
F00007C0
F00007C0
F00007C0
F00007C0
F00007C0
F00007C0
F00007C0
F00007C0
F00007C0
F0000380
60000100
00000000
00000000
00000100
60000380
F00007C0
F00007C0
F00007C0
F00007C0
F00007C0
F00007C0
F00007C0
F00007C0
F00007C0
F00007C0
F00007C0
F00007C0
F00007C0
F00007C0
F00007C0
F00007C0
F00007C0
F00007C0
F00007C0
70000380
20000100
ENDCHAR
STARTCHAR 006F
ENCODING 111
SWIDTH 510 0
DWIDTH 34 0
BBX 26 47 4 0
BITMAP
07FFF800
0FFFFC00
0FFFFC00
27FFF900
70000380
F00007C0
F00007C0
F00007C0
F00007C0
F00007C0
F00007C0
F00007C0
F00007C0
F00007C0
F00007C0
F00007C0
F00007C0
F00007C0
F00007C0
F00007C0
F0000380
60000100
00000000
00000000
00000000
60000100
F0000380
F00007C0
F00007C0
F00007C0
F00007C0
F00007C0
F00007C0
F00007C0
F00007C0
F00007C0
F00007C0
F00007C0
F00007C0
F00007C0
F00007C0
F00007C0
70000380
27FFF900
0FFFFC00
0FFFFC00
07FFF800
ENDCHAR
STARTCHAR 0070
ENCODING 112
SWIDTH 510 0
DWIDTH 34 0
BBX 26 47 4 0
BITMAP
07FFF800
0FFFFC00
0FFFFC00
27FFF900
70000380
F00007C0
F00007C0
F00007C0
F00007C0
F00007C0
F00007C0
F00007C0
F00007C0
F00007C0
F00007C0
F00007C0
F00007C0
F00007C0
F00007C0
F00007C0
70000380
27FFF900
0FFFFC00
0FFFFC00
27FFF800
70000000
F0000000
F0000000
F0000000
F0000000
F0000000
F0000000
F0000000
F0000000
F0000000
F0000000
F0000000
F0000000
F0000000
F0000000
F0000000
F0000000
F0000000
F0000000
F0000000
70000000
20000000
ENDCHAR
STARTCHAR 0071
ENCODING 113
SWIDTH 510 0
DWIDTH 34 0
BBX 26 47 4 0
BITMAP
07FFF800
0FFFFC00
0FFFFC00
27FFF900
70000380
F00007C0
F00007C0
F00007C0
F00007C0
F00007C0
F00007C0
F00007C0
F00007C0
F00007C0
F00007C0
F00007C0
F00007C0
F00007C0
F00007C0
F00007C0
F0000380
60000100
00000000
00000000
00000000
60000100
F0000380
F00007C0
F00007C0
F00007C0
F00007C0
F00007C0
F00007C0
F00007C0
F00007C0
F00007C0
F00007C0
F0000380
F0000100
F0003C00
F0003E00
F0003F00
70001F80
27FFEFC0
0FFFF7C0
0FFFF3C0
07FFE000
ENDCHAR
STARTCHAR 0072
ENCODING 114
SWIDTH 510 0
DWIDTH 34 0
BBX 26 47 4 0
BITMAP
07FFF800
0FFFFC00
0FFFFC00
27FFF900
70000380
F00007C0
F00007C0
F00007C0
F00007C0
F00007C0
F00007C0
F00007C0
F00007C0
F00007C0
F00007C0
F00007C0
F00007C0
F00007C0
F00007C0
F00007C0
70000380
27FFF900
0FFFFC00
0FFFFC00
27FFF800
70000000
F0000000
F3C00000
F3E00000
F3F00000
F1F80000
F0FC0000
F07E0000
F03F0000
F03F8000
F01F8000
F00FC000
F007E000
F003F000
F001F800
F000FC00
F0007E00
F0003F00
F0001F80
F0000FC0
700007C0
200003C0
ENDCHAR
STARTCHAR 0073
ENCODING 115
SWIDTH 510 0
DWIDTH 34 0
BBX 26 47 4 0
BITMAP
07FFF800
0FFFFC00
0FFFFC00
27FFF800
70000000
F0000000
F0000000
F0000000
F0000000
F0000000
F0000000
F0000000
F0000000
F0000000
F0000000
F0000000
F0000000
F0000000
F0000000
F0000000
70000000
27FFF800
0FFFFC00
0FFFFC00
07FFF900
00000380
000007C0
000007C0
000007C0
000007C0
000007C0
000007C0
000007C0
000007C0
000007C0
000007C0
000007C0
000007C0
000007C0
000007C0
000007C0
000007C0
00000380
07FFF900
0FFFFC00
0FFFFC00
07FFF800
ENDCHAR
STARTCHAR 0074
ENCODING 116
SWIDTH 585 0
DWIDTH 39 0
BBX 30 47 5 0
BITMAP
7FF07FF8
FFF8FFFC
FFF8FFFC
7FF27FF8
00070000
000F8000
000F8000
000F8000
000F8000
000F8000
000F8000
000F8000
000F8000
000F8000
000F8000
000F8000
000F8000
000F8000
000F8000
000F8000
00070000
00020000
00000000
00000000
00020000
00070000
000F8000
000F8000
000F8000
000F8000
000F8000
000F8000
000F8000
000F8000
000F8000
000F8000
000F8000
000F8000
000F8000
000F8000
000F8000
000F8000
000F8000
000F8000
000F8000
00070000
00020000
ENDCHAR
STARTCHAR 0075
ENCODING 117
SWIDTH 510 0
DWIDTH 34 0
BBX 26 47 4 0
BITMAP
20000100
70000380
F00007C0
F00007C0
F00007C0
F00007C0
F00007C0
F00007C0
F00007C0
F00007C0
F00007C0
F00007C0
F00007C0
F00007C0
F00007C0
F00007C0
F00007C0
F00007C0
F00007C0
F00007C0
F00007C0
60000380
00000100
00000000
00000000
60000100
F0000380
F00007C0
F00007C0
F00007C0
F00007C0
F00007C0
F00007C0
F00007C0
F00007C0
F00007C0
F00007C0
F00007C0
F00007C0
F00007C0
F00007C0
F00007C0
70000380
27FFF900
0FFFFC00
0FFFFC00
07FFF800
ENDCHAR
STARTCHAR 0076
ENCODING 118
SWIDTH 510 0
DWIDTH 34 0
BBX 26 47 4 0
BITMAP
20000100
70000380
F00007C0
F00007C0
F00007C0
F00007C0
F00007C0
F00007C0
F00007C0
F00007C0
F00007C0
F00007C0
F00007C0
F00007C0
F00007C0
F00007C0
F00007C0
F00007C0
F00007C0
F00007C0
F0000380
60000100
00000000
00000000
40000080
70000380
F0000780
F8000780
78000F80
7C000F80
7C000F00
3C001F00
3E001E00
1E003E00
1F003E00
1F003C00
0F007C00
0F807800
0780F800
07C0F800
07C0F000
03C1F000
03E1F000
01E1E000
01E3E000
01E1C000
00418000
ENDCHAR
STARTCHAR 0077
ENCODING 119
SWIDTH 690 0
DWIDTH 46 0
BBX 38 47 4 0
BITMAP
2000000010
7000000038
F00000003C
F00000003C
F00000003C
F00000003C
F00000003C
F00000003C
F00000003C
F00000003C
F00000003C
F00000003C
F00000003C
F00000003C
F00000003C
F00000003C
F00000003C
F00000003C
F00000003C
F00000003C
F00000003C
6000000018
0000000000
0000000000
0000000000
6000300018
F00078003C
F00078003C
F00078003C
F00078003C
F00078003C
F00078003C
F00078003C
F00078003C
F00078003C
F00078003C
F00078003C
F00078003C
F00078003C
F00078003C
F00078003C
F00078003C
7000700038
27FF23FF90
0FFF87FFC0
0FFF87FFC0
07FF03FF80
ENDCHAR
STARTCHAR 0078
ENCODING 120
SWIDTH 510 0
DWIDTH 34 0
BBX 26 47 4 0
BITMAP
40000180
70000780
F0000780
F8000780
78000F80
7C000F80
7C000F00
3C001F00
3E001E00
1E003E00
1F003E00
1F003C00
0F007C00
0F807800
0780F800
07C0F800
07C0F000
03C1F000
03E1E000
01E3E000
01E3E000
01E1C000
00010000
00000000
00010000
01E1C000
01E3E000
01E3E000
03E1E000
03C1F000
07C0F000
07C0F800
0780F800
0F807800
0F007C00
1F003C00
1F003E00
1E003E00
3E001E00
3C001F00
7C000F00
7C000F80
78000F80
F8000780
F80007C0
70000780
40000180
ENDCHAR
STARTCHAR 0079
ENCODING 121
SWIDTH 510 0
DWIDTH 34 0
BBX 26 47 4 0
BITMAP
20000100
70000380
F00007C0
F00007C0
F00007C0
F00007C0
F00007C0
F00007C0
F00007C0
F00007C0
F00007C0
F00007C0
F00007C0
F00007C0
F00007C0
F00007C0
F00007C0
F00007C0
F00007C0
F00007C0
70000380
27FFF900
0FFFFC00
0FFFFC00
07FFF900
00000380
000007C0
000007C0
000007C0
000007C0
000007C0
000007C0
000007C0
000007C0
000007C0
000007C0
000007C0
000007C0
000007C0
000007C0
000007C0
000007C0
00000380
07FFF900
0FFFFC00
0FFFFC00
07FFF800
ENDCHAR
STARTCHAR 007A
ENCODING 122
SWIDTH 510 0
DWIDTH 34 0
BBX 24 47 5 0
BITMAP
7FFFE0
FFFFF0
FFFFF0
7FFFE0
000002
00001E
00001E
00003E
00003E
00007C
00007C
0000F8
0001F0
0001F0
0003E0
0003E0
0007C0
0007C0
000F80
001F00
000F00
000E00
000000
000000
000000
00E000
01F000
01F000
03E000
03E000
07C000
07C000
0F8000
1F0000
1F0000
3E0000
3E0000
7C0000
7C0000
F80000
F00000
700000
000000
07FFFE
1FFFFF
1FFFFF
0FFFFE
ENDCHAR
STARTCHAR 007B
ENCODING 123
SWIDTH 480 0
DWIDTH 32 0
BBX 23 47 5 0
BITMAP
003FFC
007FFE
007FFE
013FFC
038000
03C000
03C000
03C000
03C000
03C000
03C000
03C000
03C000
03C000
03C000
03C000
03C000
03C000
03C000
03C000
03C000
038000
790000
FC0000
FC0000
790000
038000
03C000
03C000
03C000
03C000
03C000
03C000
03C000
03C000
03C000
03C000
03C000
03C000
03C000
03C000
03C000
038000
013FF8
007FFE
007FFE
003FF8
ENDCHAR
STARTCHAR 007C
ENCODING 124
SWIDTH 180 0
DWIDTH 12 0
BBX 4 52 4 0
BITMAP
20
70
F0
F0
F0
F0
F0
F0
F0
F0
F0
F0
F0
F0
F0
F0
F0
F0
F0
F0
F0
F0
F0
F0
F0
F0
F0
F0
F0
F0
F0
F0
F0
F0
F0
F0
F0
F0
F0
F0
F0
F0
F0
F0
F0
F0
F0
F0
F0
F0
70
20
ENDCHAR
STARTCHAR 007D
ENCODING 125
SWIDTH 480 0
DWIDTH 32 0
BBX 23 47 5 0
BITMAP
7FF000
FFF800
FFF800
7FF200
000700
000F00
000F00
000F00
000F00
000F00
000F00
000F00
000F00
000F00
000F00
000F00
000F00
000F00
000F00
000F00
000F00
000700
00027C
0000FE
0000FE
00027C
000700
000F00
000F00
000F00
000F00
000F00
000F00
000F00
000F00
000F00
000F00
000F00
000F00
000F00
000F00
000F00
000700
7FF200
FFF800
FFF800
7FF000
ENDCHAR
STARTCHAR 00A0
ENCODING 160
SWIDTH 720 0
DWIDTH 48 0
BBX 0 0 0 0
BITMAP
ENDCHAR
STARTCHAR 00A9
ENCODING 169
SWIDTH 510 0
DWIDTH 34 0
BBX 26 29 4 0
BITMAP
07FFF800
0FFFFC00
0FFFFC00
27FFF900
70000380
F00007C0
F00007C0
F00007C0
F00007C0
F07FC7C0
F07FC7C0
F18007C0
F18007C0
F18007C0
F18007C0
F18007C0
F18007C0
F18007C0
F18007C0
F07FC7C0
F07FC7C0
F00007C0
F00007C0
F00007C0
70000380
27FFF900
0FFFFC00
0FFFFC00
07FFF800
ENDCHAR
STARTCHAR 00AB
ENCODING 171
SWIDTH 450 0
DWIDTH 30 0
BBX 22 47 4 0
BITMAP
004008
01E03C
01E03C
01E07C
03E078
03C0F8
07C0F8
07C0F0
0781F0
0F81E0
0F03E0
1F03E0
1F03C0
1E07C0
3E0780
3C0F80
7C0F80
7C0F00
781F00
F81E00
F01E00
701E00
400000
000000
400000
701E00
F01E00
F81E00
781F00
7C0F00
7C0F80
3C0F80
3E0780
1E07C0
1F03C0
1F03E0
0F03E0
0F81E0
0781F0
07C0F0
07C0F8
03C0F8
03E078
01E07C
01E03C
01E03C
004008
ENDCHAR
STARTCHAR 00AD
ENCODING 173
SWIDTH 0 0
DWIDTH 0 0
BBX 0 0 0 0
BITMAP
ENDCHAR
STARTCHAR 00BB
ENCODING 187
SWIDTH 450 0
DWIDTH 30 0
BBX 22 47 4 0
BITMAP
400800
701E00
F01E00
F81F00
781F00
7C0F00
7C0F80
3C0780
3E07C0
1E07C0
1F03C0
1F03E0
0F01E0
0F81F0
0781F0
07C0F0
07C0F8
03C078
03E07C
01E07C
01E03C
01E038
000008
000000
000008
01E038
01E03C
01E07C
03E07C
03C078
07C0F8
07C0F0
0781F0
0F81F0
0F01E0
1F03E0
1F03C0
1E07C0
3E07C0
3C0780
7C0F80
7C0F00
781F00
F81F00
F81E00
701E00
400800
ENDCHAR
STARTCHAR 00C0
ENCODING 192
SWIDTH 510 0
DWIDTH 34 0
BBX 26 47 4 0
BITMAP
07FFF800
0FFFFC00
0FFFFC00
27FFF900
70000380
F00007C0
F00007C0
F00007C0
F00007C0
F00007C0
F00007C0
F00007C0
F00007C0
F00007C0
F00007C0
F00007C0
F00007C0
F00007C0
F00007C0
F00007C0
F00007C0
70000380
27FFF900
0FFFFC00
0FFFFC00
27FFF900
70000380
F00007C0
F00007C0
F00007C0
F00007C0
F00007C0
F00007C0
F00007C0
F00007C0
F00007C0
F00007C0
F00007C0
F00007C0
F00007C0
F00007C0
F00007C0
F00007C0
F00007C0
F00007C0
70000380
20000100
ENDCHAR
STARTCHAR 00C1
ENCODING 193
SWIDTH 510 0
DWIDTH 34 0
BBX 26 58 4 0
BITMAP
0000F000
0001F000
0003F000
0007E000
000FC000
001F8000
001F0000
001E0000
001C0000
00000000
00000000
07FFF800
0FFFFC00
0FFFFC00
27FFF900
70000380
F00007C0
F00007C0
F00007C0
F00007C0
F00007C0
F00007C0
F00007C0
F00007C0
F00007C0
F00007C0
F00007C0
F00007C0
F00007C0
F00007C0
F00007C0
F00007C0
70000380
27FFF900
0FFFFC00
0FFFFC00
27FFF900
70000380
F00007C0
F00007C0
F00007C0
F00007C0
F00007C0
F00007C0
F00007C0
F00007C0
F00007C0
F00007C0
F00007C0
F00007C0
F00007C0
F00007C0
F00007C0
F00007C0
F00007C0
F00007C0
70000380
20000100
ENDCHAR
STARTCHAR 00C2
ENCODING 194
SWIDTH 510 0
DWIDTH 34 0
BBX 26 47 4 0
BITMAP
07FFF800
0FFFFC00
0FFFFC00
27FFF900
70000380
F00007C0
F00007C0
F00007C0
F00007C0
F00007C0
F00007C0
F00007C0
F00007C0
F00007C0
F00007C0
F00007C0
F00007C0
F00007C0
F00007C0
F00007C0
F00007C0
70000380
27FFF900
0FFFFC00
0FFFFC00
27FFF900
70000380
F00007C0
F00007C0
F00007C0
F00007C0
F00007C0
F00007C0
F00007C0
F00007C0
F00007C0
F00007C0
F00007C0
F00007C0
F00007C0
F00007C0
F00007C0
F00007C0
F00007C0
F00007C0
70000380
20000100
ENDCHAR
STARTCHAR 00C3
ENCODING 195
SWIDTH 510 0
DWIDTH 34 0
BBX 26 47 4 0
BITMAP
07FFF800
0FFFFC00
0FFFFC00
27FFF900
70000380
F00007C0
F00007C0
F00007C0
F00007C0
F00007C0
F00007C0
F00007C0
F00007C0
F00007C0
F00007C0
F00007C0
F00007C0
F00007C0
F00007C0
F00007C0
F00007C0
70000380
27FFF900
0FFFFC00
0FFFFC00
27FFF900
70000380
F00007C0
F00007C0
F00007C0
F00007C0
F00007C0
F00007C0
F00007C0
F00007C0
F00007C0
F00007C0
F00007C0
F00007C0
F00007C0
F00007C0
F00007C0
F00007C0
F00007C0
F00007C0
70000380
20000100
ENDCHAR
STARTCHAR 00C4
ENCODING 196
SWIDTH 510 0
DWIDTH 34 0
BBX 26 56 4 0
BITMAP
01000000
03806000
07C0F000
07C0F000
07C0F000
03807000
01002000
00000000
00000000
07FFF800
0FFFFC00
0FFFFC00
27FFF900
70000380
F00007C0
F00007C0
F00007C0
F00007C0
F00007C0
F00007C0
F00007C0
F00007C0
F00007C0
F00007C0
F00007C0
F00007C0
F00007C0
F00007C0
F00007C0
F00007C0
70000380
27FFF900
0FFFFC00
0FFFFC00
27FFF900
70000380
F00007C0
F00007C0
F00007C0
F00007C0
F00007C0
F00007C0
F00007C0
F00007C0
F00007C0
F00007C0
F00007C0
F00007C0
F00007C0
F00007C0
F00007C0
F00007C0
F00007C0
F00007C0
70000380
20000100
ENDCHAR
STARTCHAR 00C7
ENCODING 199
SWIDTH 450 0
DWIDTH 30 0
BBX 22 55 4 -9
BITMAP
07FFF8
0FFFFC
0FFFFC
27FFF8
700000
F00000
F00000
F00000
F00000
F00000
F00000
F00000
F00000
F00000
F00000
F00000
F00000
F00000
F00000
F00000
F00000
600000
000000
000000
000000
600000
F00000
F00000
F00000
F00000
F00000
F00000
F00000
F00000
F00000
F00000
F00000
F00000
F00000
F00000
F00000
F00000
700000
27FFF8
0FFFFC
0FFFFC
07FFF8
000000
000000
001000
003800
007800
007800
007800
003000
ENDCHAR
STARTCHAR 00C8
ENCODING 200
SWIDTH 450 0
DWIDTH 30 0
BBX 22 47 4 0
BITMAP
07FFF8
0FFFFC
0FFFFC
27FFF8
700000
F00000
F00000
F00000
F00000
F00000
F00000
F00000
F00000
F00000
F00000
F00000
F00000
F00000
F00000
F00000
700000
27FFF8
0FFFFC
0FFFFC
27FFF8
700000
F00000
F00000
F00000
F00000
F00000
F00000
F00000
F00000
F00000
F00000
F00000
F00000
F00000
F00000
F00000
F00000
700000
27FFF8
0FFFFC
0FFFFC
07FFF8
ENDCHAR
STARTCHAR 00C9
ENCODING 201
SWIDTH 450 0
DWIDTH 30 0
BBX 22 58 4 0
BITMAP
0001C0
0003C0
0007C0
000FC0
001F80
003F00
007E00
007C00
007800
000000
000000
07FFF8
0FFFFC
0FFFFC
27FFF8
700000
F00000
F00000
F00000
F00000
F00000
F00000
F00000
F00000
F00000
F00000
F00000
F00000
F00000
F00000
F00000
700000
27FFF8
0FFFFC
0FFFFC
27FFF8
700000
F00000
F00000
F00000
F00000
F00000
F00000
F00000
F00000
F00000
F00000
F00000
F00000
F00000
F00000
F00000
F00000
700000
27FFF8
0FFFFC
0FFFFC
07FFF8
ENDCHAR
STARTCHAR 00CB
ENCODING 203
SWIDTH 450 0
DWIDTH 30 0
BBX 22 56 4 0
BITMAP
000080
0601C0
0F03E0
0F03E0
0F03E0
0E01C0
040080
000000
000000
07FFF8
0FFFFC
0FFFFC
27FFF8
700000
F00000
F00000
F00000
F00000
F00000
F00000
F00000
F00000
F00000
F00000
F00000
F00000
F00000
F00000
F00000
700000
27FFF8
0FFFFC
0FFFFC
27FFF8
700000
F00000
F00000
F00000
F00000
F00000
F00000
F00000
F00000
F00000
F00000
F00000
F00000
F00000
F00000
F00000
F00000
700000
27FFF8
0FFFFC
0FFFFC
07FFF8
ENDCHAR
STARTCHAR 00CC
ENCODING 204
SWIDTH 180 0
DWIDTH 12 0
BBX 4 47 4 0
BITMAP
20
70
F0
F0
F0
F0
F0
F0
F0
F0
F0
F0
F0
F0
F0
F0
F0
F0
F0
F0
F0
60
00
00
00
60
F0
F0
F0
F0
F0
F0
F0
F0
F0
F0
F0
F0
F0
F0
F0
F0
F0
F0
F0
70
20
ENDCHAR
STARTCHAR 00CD
ENCODING 205
SWIDTH 180 0
DWIDTH 12 0
BBX 4 47 4 0
BITMAP
20
70
F0
F0
F0
F0
F0
F0
F0
F0
F0
F0
F0
F0
F0
F0
F0
F0
F0
F0
F0
60
00
00
00
60
F0
F0
F0
F0
F0
F0
F0
F0
F0
F0
F0
F0
F0
F0
F0
F0
F0
F0
F0
70
20
ENDCHAR
STARTCHAR 00CE
ENCODING 206
SWIDTH 180 0
DWIDTH 12 0
BBX 4 47 4 0
BITMAP
20
70
F0
F0
F0
F0
F0
F0
F0
F0
F0
F0
F0
F0
F0
F0
F0
F0
F0
F0
F0
60
00
00
00
60
F0
F0
F0
F0
F0
F0
F0
F0
F0
F0
F0
F0
F0
F0
F0
F0
F0
F0
F0
70
20
ENDCHAR
STARTCHAR 00D2
ENCODING 210
SWIDTH 510 0
DWIDTH 34 0
BBX 26 58 4 0
BITMAP
00038000
00078000
000F8000
001F8000
003F0000
007E0000
00FC0000
00F80000
00F00000
00000000
00000000
07FFF800
0FFFFC00
0FFFFC00
27FFF900
70000380
F00007C0
F00007C0
F00007C0
F00007C0
F00007C0
F00007C0
F00007C0
F00007C0
F00007C0
F00007C0
F00007C0
F00007C0
F00007C0
F00007C0
F00007C0
F0000380
60000100
00000000
00000000
00000000
60000100
F0000380
F00007C0
F00007C0
F00007C0
F00007C0
F00007C0
F00007C0
F00007C0
F00007C0
F00007C0
F00007C0
F00007C0
F00007C0
F00007C0
F00007C0
F00007C0
70000380
27FFF900
0FFFFC00
0FFFFC00
07FFF800
ENDCHAR
STARTCHAR 00D3
ENCODING 211
SWIDTH 510 0
DWIDTH 34 0
BBX 26 47 4 0
BITMAP
07FFF800
0FFFFC00
0FFFFC00
27FFF900
70000380
F00007C0
F00007C0
F00007C0
F00007C0
F00007C0
F00007C0
F00007C0
F00007C0
F00007C0
F00007C0
F00007C0
F00007C0
F00007C0
F00007C0
F00007C0
F0000380
60000100
00000000
00000000
00000000
60000100
F0000380
F00007C0
F00007C0
F00007C0
F00007C0
F00007C0
F00007C0
F00007C0
F00007C0
F00007C0
F00007C0
F00007C0
F00007C0
F00007C0
F00007C0
F00007C0
70000380
27FFF900
0FFFFC00
0FFFFC00
07FFF800
ENDCHAR
STARTCHAR 00D4
ENCODING 212
SWIDTH 510 0
DWIDTH 34 0
BBX 26 47 4 0
BITMAP
07FFF800
0FFFFC00
0FFFFC00
27FFF900
70000380
F00007C0
F00007C0
F00007C0
F00007C0
F00007C0
F00007C0
F00007C0
F00007C0
F00007C0
F00007C0
F00007C0
F00007C0
F00007C0
F00007C0
F00007C0
F0000380
60000100
00000000
00000000
00000000
60000100
F0000380
F00007C0
F00007C0
F00007C0
F00007C0
F00007C0
F00007C0
F00007C0
F00007C0
F00007C0
F00007C0
F00007C0
F00007C0
F00007C0
F00007C0
F00007C0
70000380
27FFF900
0FFFFC00
0FFFFC00
07FFF800
ENDCHAR
STARTCHAR 00D5
ENCODING 213
SWIDTH 510 0
DWIDTH 34 0
BBX 26 47 4 0
BITMAP
07FFF800
0FFFFC00
0FFFFC00
27FFF900
70000380
F00007C0
F00007C0
F00007C0
F00007C0
F00007C0
F00007C0
F00007C0
F00007C0
F00007C0
F00007C0
F00007C0
F00007C0
F00007C0
F00007C0
F00007C0
F0000380
60000100
00000000
00000000
00000000
60000100
F0000380
F00007C0
F00007C0
F00007C0
F00007C0
F00007C0
F00007C0
F00007C0
F00007C0
F00007C0
F00007C0
F00007C0
F00007C0
F00007C0
F00007C0
F00007C0
70000380
27FFF900
0FFFFC00
0FFFFC00
07FFF800
ENDCHAR
STARTCHAR 00D6
ENCODING 214
SWIDTH 510 0
DWIDTH 34 0
BBX 26 56 4 0
BITMAP
01000000
03806000
07C0F000
07C0F000
07C0F000
03807000
01002000
00000000
00000000
07FFF800
0FFFFC00
0FFFFC00
27FFF900
70000380
F00007C0
F00007C0
F00007C0
F00007C0
F00007C0
F00007C0
F00007C0
F00007C0
F00007C0
F00007C0
F00007C0
F00007C0
F00007C0
F00007C0
F00007C0
F0000380
60000100
00000000
00000000
00000000
60000100
F0000380
F00007C0
F00007C0
F00007C0
F00007C0
F00007C0
F00007C0
F00007C0
F00007C0
F00007C0
F00007C0
F00007C0
F00007C0
F00007C0
F00007C0
F00007C0
70000380
27FFF900
0FFFFC00
0FFFFC00
07FFF800
ENDCHAR
STARTCHAR 00D9
ENCODING 217
SWIDTH 510 0
DWIDTH 34 0
BBX 26 58 4 0
BITMAP
00038000
00078000
000F8000
001F8000
003F0000
007E0000
00FC0000
00F80000
00F00000
00000000
00000000
20000100
70000380
F00007C0
F00007C0
F00007C0
F00007C0
F00007C0
F00007C0
F00007C0
F00007C0
F00007C0
F00007C0
F00007C0
F00007C0
F00007C0
F00007C0
F00007C0
F00007C0
F00007C0
F00007C0
F00007C0
60000380
00000100
00000000
00000000
60000100
F0000380
F00007C0
F00007C0
F00007C0
F00007C0
F00007C0
F00007C0
F00007C0
F00007C0
F00007C0
F00007C0
F00007C0
F00007C0
F00007C0
F00007C0
F00007C0
70000380
27FFF900
0FFFFC00
0FFFFC00
07FFF800
ENDCHAR
STARTCHAR 00DA
ENCODING 218
SWIDTH 510 0
DWIDTH 34 0
BBX 26 47 4 0
BITMAP
20000100
70000380
F00007C0
F00007C0
F00007C0
F00007C0
F00007C0
F00007C0
F00007C0
F00007C0
F00007C0
F00007C0
F00007C0
F00007C0
F00007C0
F00007C0
F00007C0
F00007C0
F00007C0
F00007C0
F00007C0
60000380
00000100
00000000
00000000
60000100
F0000380
F00007C0
F00007C0
F00007C0
F00007C0
F00007C0
F00007C0
F00007C0
F00007C0
F00007C0
F00007C0
F00007C0
F00007C0
F00007C0
F00007C0
F00007C0
70000380
27FFF900
0FFFFC00
0FFFFC00
07FFF800
ENDCHAR
STARTCHAR 00DC
ENCODING 220
SWIDTH 510 0
DWIDTH 34 0
BBX 26 56 4 0
BITMAP
01000000
03806000
07C0F000
07C0F000
07C0F000
03807000
01002000
00000000
00000000
20000100
70000380
F00007C0
F00007C0
F00007C0
F00007C0
F00007C0
F00007C0
F00007C0
F00007C0
F00007C0
F00007C0
F00007C0
F00007C0
F00007C0
F00007C0
F00007C0
F00007C0
F00007C0
F00007C0
F00007C0
60000380
00000100
00000000
00000000
60000100
F0000380
F00007C0
F00007C0
F00007C0
F00007C0
F00007C0
F00007C0
F00007C0
F00007C0
F00007C0
F00007C0
F00007C0
F00007C0
F00007C0
F00007C0
F00007C0
70000380
27FFF900
0FFFFC00
0FFFFC00
07FFF800
ENDCHAR
STARTCHAR 00DF
ENCODING 223
SWIDTH 450 0
DWIDTH 30 0
BBX 21 47 5 0
BITMAP
7FFF80
FFFFC0
FFFFC0
7FFF90
000038
000078
030078
078078
078078
078078
078078
078078
078078
078078
078078
078078
078078
078078
030078
000078
000038
7FFF90
FFFFC0
FFFFC0
7FFF90
000038
000078
030078
078078
078078
078078
078078
078078
078078
078078
078078
078078
078078
078078
078078
030078
000078
000038
7FFF90
FFFFC0
FFFFC0
7FFF80
ENDCHAR
STARTCHAR 00E0
ENCODING 224
SWIDTH 510 0
DWIDTH 34 0
BBX 26 47 4 0
BITMAP
07FFF800
0FFFFC00
0FFFFC00
27FFF900
70000380
F00007C0
F00007C0
F00007C0
F00007C0
F00007C0
F00007C0
F00007C0
F00007C0
F00007C0
F00007C0
F00007C0
F00007C0
F00007C0
F00007C0
F00007C0
F00007C0
70000380
27FFF900
0FFFFC00
0FFFFC00
27FFF900
70000380
F00007C0
F00007C0
F00007C0
F00007C0
F00007C0
F00007C0
F00007C0
F00007C0
F00007C0
F00007C0
F00007C0
F00007C0
F00007C0
F00007C0
F00007C0
F00007C0
F00007C0
F00007C0
70000380
20000100
ENDCHAR
STARTCHAR 00E1
ENCODING 225
SWIDTH 510 0
DWIDTH 34 0
BBX 26 47 4 0
BITMAP
07FFF800
0FFFFC00
0FFFFC00
27FFF900
70000380
F00007C0
F00007C0
F00007C0
F00007C0
F00007C0
F00007C0
F00007C0
F00007C0
F00007C0
F00007C0
F00007C0
F00007C0
F00007C0
F00007C0
F00007C0
F00007C0
70000380
27FFF900
0FFFFC00
0FFFFC00
27FFF900
70000380
F00007C0
F00007C0
F00007C0
F00007C0
F00007C0
F00007C0
F00007C0
F00007C0
F00007C0
F00007C0
F00007C0
F00007C0
F00007C0
F00007C0
F00007C0
F00007C0
F00007C0
F00007C0
70000380
20000100
ENDCHAR
STARTCHAR 00E2
ENCODING 226
SWIDTH 510 0
DWIDTH 34 0
BBX 26 47 4 0
BITMAP
07FFF800
0FFFFC00
0FFFFC00
27FFF900
70000380
F00007C0
F00007C0
F00007C0
F00007C0
F00007C0
F00007C0
F00007C0
F00007C0
F00007C0
F00007C0
F00007C0
F00007C0
F00007C0
F00007C0
F00007C0
F00007C0
70000380
27FFF900
0FFFFC00
0FFFFC00
27FFF900
70000380
F00007C0
F00007C0
F00007C0
F00007C0
F00007C0
F00007C0
F00007C0
F00007C0
F00007C0
F00007C0
F00007C0
F00007C0
F00007C0
F00007C0
F00007C0
F00007C0
F00007C0
F00007C0
70000380
20000100
ENDCHAR
STARTCHAR 00E3
ENCODING 227
SWIDTH 510 0
DWIDTH 34 0
BBX 26 47 4 0
BITMAP
07FFF800
0FFFFC00
0FFFFC00
27FFF900
70000380
F00007C0
F00007C0
F00007C0
F00007C0
F00007C0
F00007C0
F00007C0
F00007C0
F00007C0
F00007C0
F00007C0
F00007C0
F00007C0
F00007C0
F00007C0
F00007C0
70000380
27FFF900
0FFFFC00
0FFFFC00
27FFF900
70000380
F00007C0
F00007C0
F00007C0
F00007C0
F00007C0
F00007C0
F00007C0
F00007C0
F00007C0
F00007C0
F00007C0
F00007C0
F00007C0
F00007C0
F00007C0
F00007C0
F00007C0
F00007C0
70000380
20000100
ENDCHAR
STARTCHAR 00E4
ENCODING 228
SWIDTH 510 0
DWIDTH 34 0
BBX 26 47 4 0
BITMAP
07FFF800
0FFFFC00
0FFFFC00
27FFF900
70000380
F00007C0
F00007C0
F00007C0
F00007C0
F00007C0
F00007C0
F00007C0
F00007C0
F00007C0
F00007C0
F00007C0
F00007C0
F00007C0
F00007C0
F00007C0
F00007C0
70000380
27FFF900
0FFFFC00
0FFFFC00
27FFF900
70000380
F00007C0
F00007C0
F00007C0
F00007C0
F00007C0
F00007C0
F00007C0
F00007C0
F00007C0
F00007C0
F00007C0
F00007C0
F00007C0
F00007C0
F00007C0
F00007C0
F00007C0
F00007C0
70000380
20000100
ENDCHAR
STARTCHAR 00E7
ENCODING 231
SWIDTH 450 0
DWIDTH 30 0
BBX 22 55 4 -9
BITMAP
07FFF8
0FFFFC
0FFFFC
27FFF8
700000
F00000
F00000
F00000
F00000
F00000
F00000
F00000
F00000
F00000
F00000
F00000
F00000
F00000
F00000
F00000
F00000
600000
000000
000000
000000
600000
F00000
F00000
F00000
F00000
F00000
F00000
F00000
F00000
F00000
F00000
F00000
F00000
F00000
F00000
F00000
F00000
700000
27FFF8
0FFFFC
0FFFFC
07FFF8
000000
000000
001000
003800
007800
007800
007800
003000
ENDCHAR
STARTCHAR 00E8
ENCODING 232
SWIDTH 450 0
DWIDTH 30 0
BBX 22 47 4 0
BITMAP
07FFF8
0FFFFC
0FFFFC
27FFF8
700000
F00000
F00000
F00000
F00000
F00000
F00000
F00000
F00000
F00000
F00000
F00000
F00000
F00000
F00000
F00000
700000
27FFF8
0FFFFC
0FFFFC
27FFF8
700000
F00000
F00000
F00000
F00000
F00000
F00000
F00000
F00000
F00000
F00000
F00000
F00000
F00000
F00000
F00000
F00000
700000
27FFF8
0FFFFC
0FFFFC
07FFF8
ENDCHAR
STARTCHAR 00E9
ENCODING 233
SWIDTH 450 0
DWIDTH 30 0
BBX 22 47 4 0
BITMAP
07FFF8
0FFFFC
0FFFFC
27FFF8
700000
F00000
F00000
F00000
F00000
F00000
F00000
F00000
F00000
F00000
F00000
F00000
F00000
F00000
F00000
F00000
700000
27FFF8
0FFFFC
0FFFFC
27FFF8
700000
F00000
F00000
F00000
F00000
F00000
F00000
F00000
F00000
F00000
F00000
F00000
F00000
F00000
F00000
F00000
F00000
700000
27FFF8
0FFFFC
0FFFFC
07FFF8
ENDCHAR
STARTCHAR 00EA
ENCODING 234
SWIDTH 450 0
DWIDTH 30 0
BBX 22 47 4 0
BITMAP
07FFF8
0FFFFC
0FFFFC
27FFF8
700000
F00000
F00000
F00000
F00000
F00000
F00000
F00000
F00000
F00000
F00000
F00000
F00000
F00000
F00000
F00000
700000
27FFF8
0FFFFC
0FFFFC
27FFF8
700000
F00000
F00000
F00000
F00000
F00000
F00000
F00000
F00000
F00000
F00000
F00000
F00000
F00000
F00000
F00000
F00000
700000
27FFF8
0FFFFC
0FFFFC
07FFF8
ENDCHAR
STARTCHAR 00EC
ENCODING 236
SWIDTH 180 0
DWIDTH 12 0
BBX 4 47 4 0
BITMAP
20
70
F0
F0
F0
F0
F0
F0
F0
F0
F0
F0
F0
F0
F0
F0
F0
F0
F0
F0
F0
60
00
00
00
60
F0
F0
F0
F0
F0
F0
F0
F0
F0
F0
F0
F0
F0
F0
F0
F0
F0
F0
F0
70
20
ENDCHAR
STARTCHAR 00ED
ENCODING 237
SWIDTH 180 0
DWIDTH 12 0
BBX 4 47 4 0
BITMAP
20
70
F0
F0
F0
F0
F0
F0
F0
F0
F0
F0
F0
F0
F0
F0
F0
F0
F0
F0
F0
60
00
00
00
60
F0
F0
F0
F0
F0
F0
F0
F0
F0
F0
F0
F0
F0
F0
F0
F0
F0
F0
F0
70
20
ENDCHAR
STARTCHAR 00EE
ENCODING 238
SWIDTH 180 0
DWIDTH 12 0
BBX 4 47 4 0
BITMAP
20
70
F0
F0
F0
F0
F0
F0
F0
F0
F0
F0
F0
F0
F0
F0
F0
F0
F0
F0
F0
60
00
00
00
60
F0
F0
F0
F0
F0
F0
F0
F0
F0
F0
F0
F0
F0
F0
F0
F0
F0
F0
F0
70
20
ENDCHAR
STARTCHAR 00F2
ENCODING 242
SWIDTH 510 0
DWIDTH 34 0
BBX 26 47 4 0
BITMAP
07FFF800
0FFFFC00
0FFFFC00
27FFF900
70000380
F00007C0
F00007C0
F00007C0
F00007C0
F00007C0
F00007C0
F00007C0
F00007C0
F00007C0
F00007C0
F00007C0
F00007C0
F00007C0
F00007C0
F00007C0
F0000380
60000100
00000000
00000000
00000000
60000100
F0000380
F00007C0
F00007C0
F00007C0
F00007C0
F00007C0
F00007C0
F00007C0
F00007C0
F00007C0
F00007C0
F00007C0
F00007C0
F00007C0
F00007C0
F00007C0
70000380
27FFF900
0FFFFC00
0FFFFC00
07FFF800
ENDCHAR
STARTCHAR 00F3
ENCODING 243
SWIDTH 510 0
DWIDTH 34 0
BBX 26 47 4 0
BITMAP
07FFF800
0FFFFC00
0FFFFC00
27FFF900
70000380
F00007C0
F00007C0
F00007C0
F00007C0
F00007C0
F00007C0
F00007C0
F00007C0
F00007C0
F00007C0
F00007C0
F00007C0
F00007C0
F00007C0
F00007C0
F0000380
60000100
00000000
00000000
00000000
60000100
F0000380
F00007C0
F00007C0
F00007C0
F00007C0
F00007C0
F00007C0
F00007C0
F00007C0
F00007C0
F00007C0
F00007C0
F00007C0
F00007C0
F00007C0
F00007C0
70000380
27FFF900
0FFFFC00
0FFFFC00
07FFF800
ENDCHAR
STARTCHAR 00F4
ENCODING 244
SWIDTH 510 0
DWIDTH 34 0
BBX 26 47 4 0
BITMAP
07FFF800
0FFFFC00
0FFFFC00
27FFF900
70000380
F00007C0
F00007C0
F00007C0
F00007C0
F00007C0
F00007C0
F00007C0
F00007C0
F00007C0
F00007C0
F00007C0
F00007C0
F00007C0
F00007C0
F00007C0
F0000380
60000100
00000000
00000000
00000000
60000100
F0000380
F00007C0
F00007C0
F00007C0
F00007C0
F00007C0
F00007C0
F00007C0
F00007C0
F00007C0
F00007C0
F00007C0
F00007C0
F00007C0
F00007C0
F00007C0
70000380
27FFF900
0FFFFC00
0FFFFC00
07FFF800
ENDCHAR
STARTCHAR 00F5
ENCODING 245
SWIDTH 510 0
DWIDTH 34 0
BBX 26 47 4 0
BITMAP
07FFF800
0FFFFC00
0FFFFC00
27FFF900
70000380
F00007C0
F00007C0
F00007C0
F00007C0
F00007C0
F00007C0
F00007C0
F00007C0
F00007C0
F00007C0
F00007C0
F00007C0
F00007C0
F00007C0
F00007C0
F0000380
60000100
00000000
00000000
00000000
60000100
F0000380
F00007C0
F00007C0
F00007C0
F00007C0
F00007C0
F00007C0
F00007C0
F00007C0
F00007C0
F00007C0
F00007C0
F00007C0
F00007C0
F00007C0
F00007C0
70000380
27FFF900
0FFFFC00
0FFFFC00
07FFF800
ENDCHAR
STARTCHAR 00F6
ENCODING 246
SWIDTH 510 0
DWIDTH 34 0
BBX 26 56 4 0
BITMAP
01000000
03806000
07C0F000
07C0F000
07C0F000
03807000
01002000
00000000
00000000
07FFF800
0FFFFC00
0FFFFC00
27FFF900
70000380
F00007C0
F00007C0
F00007C0
F00007C0
F00007C0
F00007C0
F00007C0
F00007C0
F00007C0
F00007C0
F00007C0
F00007C0
F00007C0
F00007C0
F00007C0
F0000380
60000100
00000000
00000000
00000000
60000100
F0000380
F00007C0
F00007C0
F00007C0
F00007C0
F00007C0
F00007C0
F00007C0
F00007C0
F00007C0
F00007C0
F00007C0
F00007C0
F00007C0
F00007C0
F00007C0
70000380
27FFF900
0FFFFC00
0FFFFC00
07FFF800
ENDCHAR
STARTCHAR 00F7
ENCODING 247
SWIDTH 555 0
DWIDTH 37 0
BBX 27 26 5 0
BITMAP
00040000
000E0000
001F0000
001F0000
000E0000
00040000
00000000
00000000
00000000
00000000
00000000
7FFFFFC0
FFFFFFE0
FFFFFFE0
7FFFFFC0
00000000
00000000
00000000
00000000
00000000
000C0000
001E0000
001F0000
001F0000
000E0000
00040000
ENDCHAR
STARTCHAR 00F9
ENCODING 249
SWIDTH 510 0
DWIDTH 34 0
BBX 26 47 4 0
BITMAP
20000100
70000380
F00007C0
F00007C0
F00007C0
F00007C0
F00007C0
F00007C0
F00007C0
F00007C0
F00007C0
F00007C0
F00007C0
F00007C0
F00007C0
F00007C0
F00007C0
F00007C0
F00007C0
F00007C0
F00007C0
60000380
00000100
00000000
00000000
60000100
F0000380
F00007C0
F00007C0
F00007C0
F00007C0
F00007C0
F00007C0
F00007C0
F00007C0
F00007C0
F00007C0
F00007C0
F00007C0
F00007C0
F00007C0
F00007C0
70000380
27FFF900
0FFFFC00
0FFFFC00
07FFF800
ENDCHAR
STARTCHAR 00FA
ENCODING 250
SWIDTH 510 0
DWIDTH 34 0
BBX 26 47 4 0
BITMAP
20000100
70000380
F00007C0
F00007C0
F00007C0
F00007C0
F00007C0
F00007C0
F00007C0
F00007C0
F00007C0
F00007C0
F00007C0
F00007C0
F00007C0
F00007C0
F00007C0
F00007C0
F00007C0
F00007C0
F00007C0
60000380
00000100
00000000
00000000
60000100
F0000380
F00007C0
F00007C0
F00007C0
F00007C0
F00007C0
F00007C0
F00007C0
F00007C0
F00007C0
F00007C0
F00007C0
F00007C0
F00007C0
F00007C0
F00007C0
70000380
27FFF900
0FFFFC00
0FFFFC00
07FFF800
ENDCHAR
STARTCHAR 00FC
ENCODING 252
SWIDTH 510 0
DWIDTH 34 0
BBX 26 56 4 0
BITMAP
01000000
03806000
07C0F000
07C0F000
07C0F000
03807000
01002000
00000000
00000000
20000100
70000380
F00007C0
F00007C0
F00007C0
F00007C0
F00007C0
F00007C0
F00007C0
F00007C0
F00007C0
F00007C0
F00007C0
F00007C0
F00007C0
F00007C0
F00007C0
F00007C0
F00007C0
F00007C0
F00007C0
60000380
00000100
00000000
00000000
60000100
F0000380
F00007C0
F00007C0
F00007C0
F00007C0
F00007C0
F00007C0
F00007C0
F00007C0
F00007C0
F00007C0
F00007C0
F00007C0
F00007C0
F00007C0
F00007C0
70000380
27FFF900
0FFFFC00
0FFFFC00
07FFF800
ENDCHAR
STARTCHAR 00FD
ENCODING 253
SWIDTH 510 0
DWIDTH 34 0
BBX 26 47 4 0
BITMAP
20000100
70000380
F00007C0
F00007C0
F00007C0
F00007C0
F00007C0
F00007C0
F00007C0
F00007C0
F00007C0
F00007C0
F00007C0
F00007C0
F00007C0
F00007C0
F00007C0
F00007C0
F00007C0
F00007C0
70000380
27FFF900
0FFFFC00
0FFFFC00
07FFF900
00000380
000007C0
000007C0
000007C0
000007C0
000007C0
000007C0
000007C0
000007C0
000007C0
000007C0
000007C0
000007C0
000007C0
000007C0
000007C0
000007C0
00000380
07FFF900
0FFFFC00
0FFFFC00
07FFF800
ENDCHAR
STARTCHAR 2000
ENCODING 8192
SWIDTH 435 0
DWIDTH 29 0
BBX 0 0 0 0
BITMAP
ENDCHAR
STARTCHAR 2001
ENCODING 8193
SWIDTH 870 0
DWIDTH 58 0
BBX 0 0 0 0
BITMAP
ENDCHAR
STARTCHAR 2002
ENCODING 8194
SWIDTH 435 0
DWIDTH 29 0
BBX 0 0 0 0
BITMAP
ENDCHAR
STARTCHAR 2003
ENCODING 8195
SWIDTH 870 0
DWIDTH 58 0
BBX 0 0 0 0
BITMAP
ENDCHAR
STARTCHAR 2004
ENCODING 8196
SWIDTH 285 0
DWIDTH 19 0
BBX 0 0 0 0
BITMAP
ENDCHAR
STARTCHAR 2005
ENCODING 8197
SWIDTH 210 0
DWIDTH 14 0
BBX 0 0 0 0
BITMAP
ENDCHAR
STARTCHAR 2006
ENCODING 8198
SWIDTH 150 0
DWIDTH 10 0
BBX 0 0 0 0
BITMAP
ENDCHAR
STARTCHAR 2007
ENCODING 8199
SWIDTH 150 0
DWIDTH 10 0
BBX 0 0 0 0
BITMAP
ENDCHAR
STARTCHAR 2008
ENCODING 8200
SWIDTH 105 0
DWIDTH 7 0
BBX 0 0 0 0
BITMAP
ENDCHAR
STARTCHAR 2009
ENCODING 8201
SWIDTH 180 0
DWIDTH 12 0
BBX 0 0 0 0
BITMAP
ENDCHAR
STARTCHAR 200A
ENCODING 8202
SWIDTH 45 0
DWIDTH 3 0
BBX 0 0 0 0
BITMAP
ENDCHAR
STARTCHAR 2010
ENCODING 8208
SWIDTH 405 0
DWIDTH 27 0
BBX 19 5 4 21
BITMAP
3FFF80
7FFFC0
FFFFE0
7FFFC0
3FFF80
ENDCHAR
STARTCHAR 2011
ENCODING 8209
SWIDTH 405 0
DWIDTH 27 0
BBX 19 5 4 21
BITMAP
3FFF80
7FFFC0
FFFFE0
7FFFC0
3FFF80
ENDCHAR
STARTCHAR 2012
ENCODING 8210
SWIDTH 405 0
DWIDTH 27 0
BBX 19 5 4 21
BITMAP
3FFF80
7FFFC0
FFFFE0
7FFFC0
3FFF80
ENDCHAR
STARTCHAR 2013
ENCODING 8211
SWIDTH 630 0
DWIDTH 42 0
BBX 33 5 4 21
BITMAP
0FFFFFFC00
3FFFFFFF00
FFFFFFFF80
3FFFFFFF00
1FFFFFFC00
ENDCHAR
STARTCHAR 2014
ENCODING 8212
SWIDTH 1125 0
DWIDTH 75 0
BBX 67 5 4 21
BITMAP
01FFFFFFFFFFFFF000
0FFFFFFFFFFFFFFE00
FFFFFFFFFFFFFFFFE0
1FFFFFFFFFFFFFFF00
01FFFFFFFFFFFFF000
ENDCHAR
STARTCHAR 2018
ENCODING 8216
SWIDTH 270 0
DWIDTH 18 0
BBX 10 15 4 -8
BITMAP
01C0
03C0
07C0
07C0
0F80
0F80
1F00
1F00
3E00
7C00
7C00
F800
F800
F000
6000
ENDCHAR
STARTCHAR 201C
ENCODING 8220
SWIDTH 285 0
DWIDTH 19 0
BBX 11 6 4 40
BITMAP
2080
71C0
F3E0
F3E0
71C0
2080
ENDCHAR
STARTCHAR 202F
ENCODING 8239
SWIDTH 180 0
DWIDTH 12 0
BBX 0 0 0 0
BITMAP
ENDCHAR
STARTCHAR 205F
ENCODING 8287
SWIDTH 210 0
DWIDTH 14 0
BBX 0 0 0 0
BITMAP
ENDCHAR
STARTCHAR 20AC
ENCODING 8364
SWIDTH 450 0
DWIDTH 30 0
BBX 22 47 4 0
BITMAP
07FFF8
0FFFFC
0FFFFC
27FFF8
700000
F00000
F00000
F00000
F00000
F00000
F00000
F00000
F0FFC0
F1FFE0
F1FFE0
F0FFC0
F00000
F00000
F00000
F00000
700000
27FFF8
0FFFFC
0FFFFC
27FFF8
700000
F00000
F00000
F00000
F00000
F00000
F0FFC0
F1FFE0
F1FFE0
F0FFC0
F00000
F00000
F00000
F00000
F00000
F00000
F00000
700000
27FFF8
0FFFFC
0FFFFC
07FFF8
ENDCHAR
STARTCHAR 25FC
ENCODING 9724
SWIDTH 705 0
DWIDTH 47 0
BBX 47 47 0 0
BITMAP
FFFFFFFFFFFE
FFFFFFFFFFFE
FFFFFFFFFFFE
FFFFFFFFFFFE
FFFFFFFFFFFE
FFFFFFFFFFFE
FFFFFFFFFFFE
FFFFFFFFFFFE
FFFFFFFFFFFE
FFFFFFFFFFFE
FFFFFFFFFFFE
FFFFFFFFFFFE
FFFFFFFFFFFE
FFFFFFFFFFFE
FFFFFFFFFFFE
FFFFFFFFFFFE
FFFFFFFFFFFE
FFFFFFFFFFFE
FFFFFFFFFFFE
FFFFFFFFFFFE
FFFFFFFFFFFE
FFFFFFFFFFFE
FFFFFFFFFFFE
FFFFFFFFFFFE
FFFFFFFFFFFE
FFFFFFFFFFFE
FFFFFFFFFFFE
FFFFFFFFFFFE
FFFFFFFFFFFE
FFFFFFFFFFFE
FFFFFFFFFFFE
FFFFFFFFFFFE
FFFFFFFFFFFE
FFFFFFFFFFFE
FFFFFFFFFFFE
FFFFFFFFFFFE
FFFFFFFFFFFE
FFFFFFFFFFFE
FFFFFFFFFFFE
FFFFFFFFFFFE
FFFFFFFFFFFE
FFFFFFFFFFFE
FFFFFFFFFFFE
FFFFFFFFFFFE
FFFFFFFFFFFE
FFFFFFFFFFFE
FFFFFFFFFFFE
ENDCHAR
ENDFONT
